<svg width="63" height="50" viewBox="0 0 63 50" fill="none" xmlns="http://www.w3.org/2000/svg">
<path d="M12.1367 2.17784C10.1367 3.24451 6.53666 4.31117 4.13666 4.31117L0.00366211 4.57784L4.00366 5.11117C9.33666 5.91117 11.3366 8.8445 11.3366 15.7778C11.3366 25.9111 17.6037 33.9111 26.6707 35.6445C29.8707 36.1778 31.3366 37.3778 31.8706 39.6445C32.6706 42.5778 41.4707 50.5778 42.6707 49.2445C44.5367 47.3778 34.8036 22.9778 31.3366 20.8445C28.9366 19.3778 29.8706 17.7778 32.8036 18.4445C34.5366 18.9778 34.9367 19.5111 34.1367 20.1778C32.2707 21.2445 35.8706 24.7111 41.0706 26.7111C45.7366 28.4445 53.6037 28.5778 54.6707 26.9778C55.6037 25.3778 48.9367 20.5778 44.1367 19.3778C40.6707 18.5778 40.8036 18.4445 47.3366 16.1778C55.0706 13.5111 64.4036 5.64451 61.6036 3.91117C59.3366 2.44451 50.2707 2.57784 44.4037 4.17784C41.6037 4.97784 36.6706 7.77784 33.2036 10.3111C26.2706 15.6445 24.1366 15.1111 23.8706 8.04451C23.4706 1.37784 18.5367 -1.02216 12.1367 2.17784ZM21.7367 8.17784C22.0037 10.7111 24.4037 15.1111 27.7367 19.3778C33.3367 26.0445 38.1367 35.6445 40.1367 43.5111L41.0706 47.5111L38.0037 44.8445C36.4037 43.3778 34.1366 40.1778 33.0706 37.7778C31.6036 34.3111 30.5366 33.5111 27.3366 33.5111C24.6706 33.5111 21.7367 32.0445 18.5367 29.1111C14.1367 25.1111 13.6037 23.9111 12.6707 14.8445C11.7367 6.44451 11.8706 4.57784 13.6036 3.24451C16.9366 0.577834 21.3367 3.11117 21.7367 8.17784ZM59.0706 5.37784C60.5366 6.17784 60.0036 7.11117 56.9366 9.37784C50.2706 14.0445 43.8707 16.1778 36.5367 16.1778H29.6036L32.1367 13.3778C38.0037 6.97784 54.1366 2.17784 59.0706 5.37784ZM48.4037 23.1111C53.0707 25.5111 51.8707 27.2445 46.4037 26.1778C40.0037 24.9778 36.4036 23.1111 37.3366 21.3778C38.2706 20.0445 43.6037 20.8445 48.4037 23.1111Z" fill="#2C5B9B"/>
</svg>
