<svg width="11" height="18" viewBox="0 0 11 18" fill="none" xmlns="http://www.w3.org/2000/svg">
<path fill-rule="evenodd" clip-rule="evenodd" d="M11 1.6875V16.3125C11 17.2441 10.2609 18 9.35 18H1.65C0.739062 18 0 17.2441 0 16.3125V1.6875C0 0.755859 0.739062 0 1.65 0H9.35C10.2609 0 11 0.755859 11 1.6875ZM6.6 14.625C6.6 15.2473 6.10844 15.75 5.5 15.75C4.89156 15.75 4.4 15.2473 4.4 14.625C4.4 14.0027 4.89156 13.5 5.5 13.5C6.10844 13.5 6.6 14.0027 6.6 14.625ZM9.35 1.125C9.6525 1.125 9.9 1.37812 9.9 1.6875V16.3125C9.9 16.6219 9.6525 16.875 9.35 16.875H1.65C1.3475 16.875 1.1 16.6219 1.1 16.3125V1.6875C1.1 1.37812 1.3475 1.125 1.65 1.125H9.35Z" fill="#2C5B9B"/>
</svg>
