<svg width="60" height="60" viewBox="0 0 60 60" fill="none" xmlns="http://www.w3.org/2000/svg">
<g clip-path="url(#clip0_5526_363)">
<path d="M25.9966 22.1592C23.4915 18.3418 20.7608 14.4083 19.0128 10.2651C18.9355 10.0846 19.2289 9.88935 19.3636 10.0752C21.946 13.6545 23.9728 17.5776 26.3255 21.2792C28.7972 25.1696 31.5216 28.9344 33.9839 32.8273C34.0611 32.9489 33.8408 33.0668 33.7468 32.9554C30.8752 29.5476 28.4056 25.8306 25.9966 22.1592Z" fill="#AFC7E9"/>
<path d="M50.9711 39.7741C51.0825 39.9177 50.844 40.09 50.7295 39.9454C42.5404 29.5408 32.9963 20.285 23.031 11.191C22.9301 11.0989 23.0982 10.9378 23.2096 11.0252C33.8619 19.3896 42.947 29.4376 50.9711 39.7741Z" fill="#AFC7E9"/>
<path d="M51.356 52.0802C51.5579 52.3127 51.7598 52.5463 51.9618 52.7804C52.0971 52.9156 51.8404 53.0854 51.7029 52.9508C48.2114 49.5229 45.1086 45.8026 42.0188 42.1333C41.9479 42.0486 42.095 41.9472 42.1734 42.0319C43.9047 43.8999 45.6413 45.7641 47.3586 47.6426C48.1759 48.5368 48.9857 49.4362 49.8009 50.333C50.2004 50.7735 50.6826 51.2061 51.0166 51.6824C51.0628 51.7489 51.1606 51.9071 51.2561 52.0655C51.2851 52.0487 51.3313 52.0477 51.356 52.0802Z" fill="#AFC7E9"/>
<path d="M49.895 54.9343C49.9895 54.9091 50.042 55.0109 49.9577 55.0555C45.092 57.5843 38.2597 54.4552 33.8741 52.4442C28.8193 50.1248 23.7707 47.079 20.041 43.2758C19.9053 43.1374 20.1366 42.911 20.299 43.0367C24.2281 46.0989 28.0905 48.9896 32.6919 51.2889C37.8053 53.8433 43.9303 56.5557 49.895 54.9343Z" fill="#AFC7E9"/>
<path d="M19.1514 43.2788C20.3825 45.0267 21.9125 46.6079 23.8116 47.8555C25.4654 48.943 27.3341 49.7539 28.9679 50.8628C29.0402 50.9121 28.9804 51.0305 28.8871 50.9927C24.9389 49.4296 21.4627 47.1233 19.1252 43.9592C16.3075 40.1451 14.8719 35.5416 14.0025 31.1299C13.9721 30.9794 14.2248 30.9506 14.271 31.0915C15.6101 35.2584 16.5067 39.5212 19.1514 43.2788Z" fill="#AFC7E9"/>
<path d="M36.8875 52.995C32.3522 51.3815 28.0518 48.4439 25.0199 45.1159C24.9516 45.0409 25.0751 44.9578 25.1494 45.0243C28.7578 48.2226 32.5219 50.6299 36.9638 52.8677C37.0462 52.9086 36.9739 53.0254 36.8875 52.995Z" fill="#AFC7E9"/>
<path d="M46.9772 49.8391C47.0642 49.9407 46.8806 50.0644 46.7925 49.961C43.633 46.2853 40.2705 42.7394 37.0186 39.1181C36.951 39.0428 37.0841 38.9545 37.1582 39.027C40.6645 42.4747 43.8445 46.1607 46.9772 49.8391Z" fill="#AFC7E9"/>
<path d="M42.1689 48.0282C43.4798 49.2602 44.7077 50.5576 45.9699 51.8233C46.0778 51.9322 45.8693 52.0694 45.7614 51.9596C44.5128 50.6857 43.2185 49.4312 42.0206 48.1253C41.947 48.0458 42.088 47.952 42.1689 48.0282Z" fill="#AFC7E9"/>
<path d="M45.8368 54.968C45.2 54.0905 44.4653 53.1642 44.0122 52.1969C43.9463 52.056 44.1639 51.9235 44.2703 52.0523C44.9645 52.8975 45.4779 53.9393 45.9913 54.8819C46.0365 54.9637 45.8942 55.0475 45.8368 54.968Z" fill="#AFC7E9"/>
<path fill-rule="evenodd" clip-rule="evenodd" d="M20.7825 50.7782C15.0441 47.443 10.5294 42.8818 7.89309 37.2549C5.8557 32.9035 4.42549 27.58 5.22579 22.7436C5.91869 20.3035 7.66694 18.6645 9.54841 16.9397C8.93089 17.8886 8.36088 18.8604 7.91787 19.8876C6.63431 22.8629 6.71485 26.0653 7.26112 29.1681C8.32473 35.2168 11.1965 41.0926 16.1325 45.4661C16.217 45.5405 16.3031 45.613 16.3894 45.6856C16.4422 45.7301 16.4951 45.7746 16.5476 45.8196C15.9229 45.0431 15.3797 44.2199 14.8923 43.3656C10.3549 38.5328 8.40425 31.4322 8.36604 25.4243C8.34745 22.5057 8.80904 19.5878 9.72086 16.7824L9.74074 16.7641C10.2279 16.3167 10.7229 15.8622 11.2068 15.3838C15.4644 11.1883 14.7323 6.05806 13.6986 0.995564C13.7778 0.952988 13.858 0.911854 13.9383 0.870682C14.0024 0.837807 14.0665 0.804909 14.1302 0.77124C14.1529 0.808102 14.1764 0.844898 14.1999 0.881729C14.249 0.95874 14.2983 1.0359 14.3409 1.11415C14.3295 1.023 14.3213 0.929024 14.3161 0.833221C14.2938 0.805431 14.2698 0.778599 14.2459 0.751751C14.2376 0.742493 14.2293 0.733231 14.2211 0.72393C14.694 0.476818 15.1711 0.235355 15.6513 0C16.1315 0.604614 16.5115 1.30183 16.7645 1.8925C17.7682 3.21959 18.7058 4.59079 19.565 5.9897C19.9109 6.20227 20.2476 6.43552 20.5811 6.67516C20.5887 6.67809 20.5962 6.6799 20.6037 6.68169C20.6125 6.68381 20.6212 6.68589 20.6296 6.68975C22.7113 7.71412 24.5852 9.10894 26.4303 10.4824C27.0153 10.9178 27.5974 11.3511 28.1824 11.7698C28.7066 12.1447 29.2309 12.5196 29.7553 12.8946C31.5826 14.2012 33.41 15.508 35.2363 16.8169C39.4835 19.8588 43.6254 23.0217 46.6542 27.0897C49.3679 30.733 51.2174 34.8013 52.5103 38.9968C53.8961 43.4943 55.0061 48.3911 55 53.0681C55 53.6314 54.0365 53.6203 53.9208 53.1036C53.5153 51.2944 53.2128 49.4751 52.9105 47.6571L52.8913 47.5416C45.6432 37.585 37.6351 28.197 29.0952 19.1285C36.4267 28.3995 43.5043 37.8487 50.5667 47.2777C51.0952 47.9832 51.6236 48.6886 52.1519 49.3938C52.3058 49.5989 51.9733 49.8449 51.8101 49.6381C51.2697 48.9517 50.7291 48.2652 50.1885 47.5787C47.6782 44.3912 45.1662 41.2015 42.6641 38.0041C43.4964 39.1726 44.3256 40.3441 45.1455 41.5198C46.5241 43.4982 47.9006 45.4778 49.2316 47.4803C49.5191 47.9126 49.8517 48.366 50.1955 48.8345C51.2977 50.3369 52.5144 51.9951 52.723 53.6139C52.7333 53.6897 52.6393 53.7463 52.566 53.7015C51.1471 52.8311 50.1238 51.2524 49.184 49.8024C48.8681 49.3151 48.5616 48.8422 48.2527 48.4158C47.6134 47.5327 46.9774 46.6479 46.3414 45.7631C45.5166 44.6158 44.6918 43.4684 43.8599 42.3249C40.9106 38.2712 37.9253 34.2398 34.8738 30.2455C33.7817 28.816 32.6913 27.3855 31.6009 25.9549C29.7139 23.4792 27.8268 21.0034 25.9302 18.5331C25.5895 18.0899 25.2491 17.6466 24.9086 17.2032C24.5049 16.6775 24.101 16.1517 23.6966 15.6255C24.0828 16.2152 24.469 16.8013 24.8655 17.3756C26.6871 20.0144 28.5345 22.6406 30.4067 25.2531C32.6622 28.3994 34.9418 31.5336 37.2215 34.6679C38.5477 36.4913 39.874 38.3148 41.1957 40.1409C41.2473 40.2121 41.1358 40.2967 41.0769 40.2248C37.1064 35.3582 33.3455 30.3758 29.7065 25.3104C28.0109 22.9515 26.337 20.5823 24.6817 18.2005C24.2763 17.617 23.8552 17.0324 23.4317 16.4445C22.0551 14.5331 20.6528 12.5861 19.6776 10.5256C19.1994 9.94133 18.7255 9.34957 18.2814 8.74706C18.2639 9.01131 18.2381 9.27583 18.204 9.54008C18.2143 9.94306 18.2019 10.3451 18.1575 10.7478C18.2587 10.7436 18.3671 10.777 18.4219 10.8635C19.6218 12.7883 20.6339 14.8158 21.6451 16.8416C22.3369 18.2274 23.0283 19.6125 23.7792 20.9633C25.6317 24.296 27.5907 27.5847 29.6621 30.8159C29.7509 30.9544 29.4855 31.1039 29.3874 30.9648C27.1507 27.7907 25.0359 24.5574 23.1038 21.2303C22.9535 20.9716 22.8021 20.7121 22.6502 20.4516C20.9433 17.525 19.1727 14.4894 18.0718 11.3531C18.0377 11.5565 17.9954 11.7605 17.9489 11.9637C18.3596 13.047 18.7144 14.1484 19.0696 15.2509C19.5566 16.7626 20.0442 18.2761 20.6771 19.7473C21.938 22.677 23.3796 25.5448 25.0803 28.2964C25.1825 28.4598 24.8882 28.5698 24.7839 28.4131C22.9169 25.6096 21.2162 22.7318 19.8861 19.6928L19.8568 19.6259C19.0087 17.6926 18.0849 15.5866 17.5173 13.4824C17.3004 14.1158 17.0464 14.7478 16.7665 15.3784C17.7744 19.1541 18.8804 22.7781 20.7329 26.374C20.8176 26.54 20.5439 26.6403 20.4448 26.4879C18.4983 23.4756 16.9111 19.9933 16.2575 16.4804C16.0086 16.9963 15.7504 17.5112 15.4902 18.0236C15.5356 18.0108 15.5852 18.0218 15.6059 18.0767C15.7359 18.4369 15.8079 18.8224 15.879 19.2034C15.9094 19.3668 15.9398 19.5294 15.9745 19.6889C16.0086 19.8495 15.7225 19.8915 15.6916 19.7309C15.6616 19.5785 15.6269 19.4246 15.5921 19.2699C15.5116 18.9126 15.4301 18.5509 15.4035 18.1942C15.3525 18.2943 15.3016 18.3944 15.2507 18.4943C14.3258 20.3112 13.421 22.0885 12.9365 23.7872C12.2147 26.3185 12.0443 28.9882 12.2994 31.6501C12.3861 31.94 12.4801 32.2323 12.5926 32.5267C12.6329 32.6336 12.5296 32.7358 12.4253 32.7236C12.922 36.2978 14.1684 39.8189 15.9053 42.9274C15.9663 43.0371 16.0306 43.1429 16.0951 43.2488C16.1103 43.2738 16.1256 43.2989 16.1408 43.324C16.3359 43.6221 16.5332 43.9208 16.7314 44.2209C18.615 46.8352 21.2823 48.545 24.3988 50.1402C27.7187 51.8403 31.1398 53.3753 34.5868 54.8637C34.6394 54.8612 34.6931 54.8665 34.7489 54.89C35.3957 55.1621 36.0339 55.4459 36.6705 55.729C36.727 55.7541 36.7835 55.7793 36.84 55.8044C38.0884 56.3011 39.4133 56.7814 40.7619 57.1688C45.3159 58.2555 49.9906 58.2812 53.0018 54.6632C53.1298 54.5084 53.3075 54.4966 53.451 54.5557C53.4663 54.5343 53.4816 54.5131 53.4968 54.4919C53.5703 54.39 53.6432 54.2888 53.7133 54.18C53.9477 53.8165 54.7087 54.0572 54.6045 54.4727C54.527 54.7761 54.4237 55.0624 54.306 55.3387C54.1294 58.2645 49.8223 59.9273 46.9412 59.9956C45.4852 60.0302 43.9332 59.8589 42.3997 59.5135C39.4174 58.9666 36.4827 57.8663 33.6688 56.5617C29.1634 55.0122 24.7468 53.0827 20.7825 50.7782ZM18.2938 7.24842C18.2773 6.9468 18.2463 6.64527 18.204 6.3462C19.3663 7.53481 20.9238 8.54931 22.4114 9.51836L22.4117 9.51851C23.0082 9.90707 23.5934 10.2883 24.1375 10.6705C26.4165 12.2721 28.655 13.9132 30.8955 15.5558L30.8957 15.5559L30.8959 15.556L30.8962 15.5563L31.0479 15.6675C33.32 17.3337 35.5968 18.9934 37.8739 20.6533C38.7657 21.3033 39.6576 21.9535 40.5492 22.604C42.0744 23.9321 43.5026 25.3442 44.7541 26.901C46.3805 28.9245 47.7116 31.1139 48.8083 33.3956C45.415 29.2656 41.4321 25.4105 37.4069 21.7818C33.2092 17.9973 28.7854 14.0888 23.8411 11.0643C23.6997 10.9775 23.4952 11.1545 23.6274 11.2648C25.4282 12.7772 27.2774 14.2381 29.1262 15.6988C31.8647 17.8624 34.6026 20.0254 37.1818 22.3544C40.6011 25.4414 43.7528 28.6972 46.9164 31.9653C47.6977 32.7724 48.4798 33.5803 49.2667 34.3865C50.0557 36.1547 50.7124 37.9688 51.2566 39.799C51.9371 42.0871 52.3616 44.4022 52.7529 46.7212C44.9937 35.6369 36.1419 24.9896 26.1171 15.3959C25.9543 15.193 25.7921 14.9901 25.6299 14.7872L25.6287 14.7857C25.3561 14.4446 25.0837 14.1037 24.8087 13.7633C24.691 13.6184 24.5051 13.6747 24.4256 13.7942C23.8029 13.2129 23.1772 12.6328 22.5442 12.0595C22.5318 12.048 22.5172 12.045 22.5022 12.0419L22.4946 12.0403L22.4838 12.0274C22.4285 11.9616 22.3732 11.8957 22.317 11.8299C21.9635 11.4164 21.6129 10.9915 21.2598 10.5635L21.2598 10.5635L21.2598 10.5634C20.3226 9.42753 19.3679 8.27026 18.2938 7.24842ZM10.294 28.0778C10.4034 29.4486 10.6193 30.8124 10.9239 32.1586C10.8144 31.4247 10.7359 30.6884 10.6936 29.9517C10.485 29.3411 10.3549 28.7148 10.294 28.0778ZM10.453 22.0816C10.2124 23.8491 10.1556 25.6384 10.2568 27.4215C10.2114 25.5547 10.6967 23.6224 11.3813 21.7911C11.0189 21.3261 10.8206 20.8557 10.7483 20.3818C10.6327 20.9405 10.5315 21.5055 10.453 22.0816ZM11.9452 20.3999C11.8935 19.3015 12.5059 18.1458 13.1926 17.0419C13.3444 17.0419 13.4951 16.9957 13.6222 16.8988C13.5508 17.0417 13.4793 17.1846 13.4078 17.3274C13.173 17.7965 12.9386 18.2649 12.7114 18.7336C12.4512 19.2706 12.192 19.8274 11.9452 20.3999ZM11.6426 17.2009L11.6426 17.2008C11.6576 17.174 11.6726 17.1472 11.688 17.1203C12.224 16.1895 12.6959 15.2552 13.11 14.3084C13.1909 14.038 13.2727 13.7682 13.3544 13.4986C13.4291 13.252 13.5038 13.0056 13.5778 12.7588C12.7919 14.2361 12.1238 15.7359 11.5972 17.2815C11.6127 17.2547 11.6276 17.2278 11.6426 17.2009ZM24.4595 14.2924C24.3255 14.1555 24.1915 14.0187 24.058 13.8818C24.7891 14.7439 25.514 15.6109 26.2348 16.4815C26.0716 16.2599 25.9077 16.0387 25.7438 15.8174C25.5321 15.5316 25.3203 15.2459 25.1103 14.9593C24.8943 14.7365 24.6768 14.5144 24.4595 14.2924ZM15.1773 6.02425C15.23 5.60057 15.2558 5.1768 15.2517 4.75559C15.3198 4.87956 15.388 5.00343 15.4572 5.12667C15.3869 5.42292 15.2899 5.72445 15.1773 6.02425Z" fill="#AFC7E9"/>
</g>
<defs>
<clipPath id="clip0_5526_363">
<rect width="60" height="60" fill="white"/>
</clipPath>
</defs>
</svg>
