<svg width="61" height="61" viewBox="0 0 61 61" fill="none" xmlns="http://www.w3.org/2000/svg">
<path d="M39.9673 28.762C40.1027 28.9661 40.2438 29.0881 40.2438 29.2106C40.2438 29.278 40.0125 29.3464 39.8827 29.4142C39.7755 29.3036 39.6063 29.2004 39.5781 29.0792C39.5611 29.0137 39.7699 28.9166 39.9673 28.762Z" fill="#AFC7E9"/>
<path fill-rule="evenodd" clip-rule="evenodd" d="M52.1926 27.3078C51.9926 27.5804 51.7925 27.853 51.5911 28.1244C51.6238 28.1548 51.6564 28.1844 51.6891 28.214L51.7025 28.2262C54.4686 25.8074 56.2461 22.757 57.5131 19.1639C57.5959 19.4601 57.6759 19.7372 57.752 20.0007C57.9486 20.6821 58.1192 21.2732 58.2464 21.8732C58.2839 22.0463 58.2161 22.2401 58.148 22.4347C58.115 22.5289 58.0819 22.6233 58.0607 22.7157C58.0515 22.7541 58.0545 22.7948 58.0576 22.836C58.0592 22.8567 58.0607 22.8776 58.0607 22.8983L58.1326 22.8833C58.2559 22.8576 58.3801 22.8317 58.5434 22.7971C58.6123 23.0151 58.6742 23.2349 58.7359 23.454C58.8697 23.9286 59.0024 24.3996 59.2024 24.8404C59.5876 25.6793 59.3138 26.2278 58.6826 26.818C57.1186 28.2906 55.4107 29.5791 53.5961 30.7353C53.1983 30.9883 52.8051 31.2477 52.4117 31.5073C52.2404 31.6203 52.0692 31.7332 51.8974 31.8458C52.9463 31.6377 53.8096 31.0985 54.6589 30.5447C55.5267 29.9781 56.39 29.4046 57.2021 28.7663C57.7425 28.3386 58.2516 27.8693 58.799 27.3646C59.0415 27.1411 59.2915 26.9105 59.5552 26.6736C59.5752 26.908 59.5917 27.1224 59.6072 27.3234C59.6382 27.726 59.665 28.0747 59.7083 28.4218C59.7965 29.1342 59.5273 29.6399 58.9147 30.0425C57.8534 30.7392 56.8079 31.456 55.7624 32.1729C55.4179 32.4091 55.0735 32.6452 54.7285 32.8807C54.5052 33.0311 54.2891 33.186 54.0733 33.3408C53.9886 33.4015 53.9039 33.4623 53.8188 33.5227C55.7223 33.0319 57.261 31.9305 58.8584 30.7871C59.1421 30.5839 59.4277 30.3795 59.7176 30.1769L59.7176 31.4308C59.5744 31.5016 59.4338 31.5698 59.2951 31.637C59.0113 31.7747 58.7358 31.9083 58.4645 32.0513C58.0561 32.2666 57.6523 32.4866 57.2625 32.736C57.1837 32.7868 57.1 32.8319 57.0159 32.8771C56.7283 33.0319 56.4363 33.1889 56.325 33.5875C56.5479 33.4783 56.7709 33.3691 56.9938 33.2599C57.8803 32.8258 58.7673 32.3914 59.6573 31.9547C59.8475 32.4889 59.6897 32.7791 59.2117 33.0002C59.1432 33.0319 59.0724 33.0616 59.0011 33.0914C58.6521 33.2375 58.2906 33.3888 58.1211 33.8151C58.5991 33.6131 59.0818 33.4115 59.5737 33.2066C59.6897 34.2778 59.6897 34.2871 58.9054 34.6367C58.4576 34.8361 58.0077 35.0295 57.5586 35.2225C57.3327 35.3196 57.1071 35.4166 56.8819 35.5143C56.8958 35.5486 56.9086 35.5831 56.9214 35.6176C56.9341 35.6521 56.9469 35.6866 56.9608 35.7209C57.1494 35.6655 57.3379 35.61 57.5282 35.554C58.1341 35.3758 58.7573 35.1924 59.4531 34.9887C59.419 35.1545 59.3912 35.3102 59.3648 35.4581C59.3118 35.7545 59.2644 36.0199 59.1839 36.2742C59.0193 36.7824 58.8578 37.2918 58.6962 37.8012C58.2292 39.2742 57.7621 40.7473 57.2207 42.1923C55.6892 46.2558 53.2619 49.6847 49.5955 52.2084C48.9084 52.6817 48.2431 53.1878 47.5726 53.6978C47.265 53.9319 46.9562 54.1668 46.6438 54.3997C47.0565 54.6368 47.3759 54.4159 47.6587 54.2203C47.6716 54.2114 47.6845 54.2024 47.6973 54.1936C48.4584 53.6788 49.2056 53.1413 49.9389 52.5905C53.5404 49.8908 56.2229 46.481 58.0143 42.4142C58.4234 41.4852 58.747 40.5187 59.0702 39.5533C59.1797 39.2261 59.2892 38.8991 59.402 38.5736C60.3673 35.803 60.9057 32.9679 60.9103 30.0253C60.915 27.158 60.4091 24.396 59.4531 21.6966L59.4372 21.6508C59.2701 21.1698 59.0951 20.6662 59.0771 20.1672C58.9657 17.427 57.5734 15.3001 55.717 13.4143C55.1926 12.8795 54.7656 12.3302 54.5568 11.6306C53.9117 9.45651 52.5008 7.86714 50.6119 6.63732C50.2501 6.40112 49.8835 6.17069 49.517 5.94026C49.0747 5.66226 48.6325 5.38425 48.1985 5.09607L48.1631 5.07248C47.8891 4.88999 47.5883 4.68962 47.4281 4.42418C46.8526 3.46175 45.9244 2.91789 44.9869 2.39763C43.4415 1.53553 41.8682 0.691132 39.9793 0.977592C39.3156 1.07747 38.6844 0.970783 38.0347 0.840492C35.5749 0.346565 33.0966 -0.0411301 30.5719 0.0932465C27.6759 0.247143 24.8309 0.668434 22.0092 1.34758C20.3454 1.74842 18.8955 2.55083 17.4435 3.3544C17.0931 3.54831 16.7426 3.74229 16.3889 3.93071C15.9954 4.13988 15.6387 4.41058 15.2812 4.68194C15.0567 4.85228 14.8319 5.02288 14.5974 5.17869C12.3837 6.65457 10.4112 8.40056 8.63372 10.3495C6.71697 12.4437 5.0694 14.7231 3.97876 17.3416C3.03199 19.6152 2.22445 21.9372 1.70465 24.3451C1.18021 26.7898 0.739315 29.2553 0.976007 31.759C1.43547 36.6565 2.80458 41.3174 5.01835 45.7346C6.27143 48.2288 7.84474 50.52 9.85895 52.4721C11.0888 53.6611 12.393 54.8342 13.8456 55.7308C16.9737 57.6625 20.4452 58.7974 24.1023 59.3871C26.5806 59.7871 29.0682 60.1171 31.5836 60.0599C36.6192 59.9458 41.2045 58.4233 45.3675 55.6644C45.4767 55.5903 45.5734 55.4964 45.6701 55.4024C45.7172 55.3566 45.7644 55.3108 45.813 55.2672C45.4061 55.278 45.0777 55.4164 44.7495 55.5547C44.7034 55.5742 44.6573 55.5936 44.611 55.6127C44.4788 55.6672 44.3534 55.7412 44.2266 55.8161C43.9749 55.9647 43.7176 56.1166 43.3904 56.1257C43.4056 55.9879 43.4212 55.8584 43.4362 55.7346C43.4714 55.4426 43.5027 55.1826 43.5157 54.9218C43.5318 54.6675 43.5278 54.4125 43.5239 54.1572C43.5221 54.0438 43.5204 53.9303 43.5204 53.8168C43.3068 54.4022 43.2112 54.9972 43.1158 55.591C43.0992 55.6939 43.0827 55.7968 43.0656 55.8996C43.0631 55.9163 43.0606 55.9334 43.058 55.9509C43.0274 56.1607 42.9891 56.4226 42.8521 56.5153C42.8061 56.5465 42.7601 56.5779 42.714 56.6094C42.156 56.9908 41.5863 57.3802 40.8147 57.4367C41.715 54.8604 41.9935 53.027 41.7707 50.9032C41.6268 51.3563 41.5247 51.8179 41.4737 52.2846C41.2927 53.8645 41.0142 55.4229 40.4851 56.9279C40.1139 57.9783 39.8168 58.1613 38.6009 58.2149C38.6421 58.1264 38.6851 58.0407 38.7274 57.9563C38.8232 57.7652 38.9156 57.5809 38.9768 57.3869C39.0403 57.1917 39.1041 56.9965 39.1679 56.8013C39.5378 55.6697 39.9079 54.5376 40.2206 53.3902C40.2322 53.3454 40.2468 53.2976 40.2621 53.2479C40.3567 52.9389 40.4753 52.5517 40.0396 52.3041C39.9189 52.7381 39.7983 53.1722 39.6822 53.6056C39.4363 55.1928 38.8051 56.6469 38.0811 58.0673C37.9186 58.3842 37.7376 58.7338 37.2086 58.6834V57.9122C37.0279 58.0146 36.9351 58.1891 36.8415 58.3652C36.6994 58.6324 36.5553 58.9032 36.0994 58.9317C36.3589 58.2711 36.5972 57.6631 36.8303 57.0682C36.9057 56.8758 36.9805 56.6848 37.0554 56.4939C36.6934 56.6236 36.5217 56.8439 36.3685 57.0776C36.2261 57.2909 36.0894 57.5073 35.9529 57.7233C35.7648 58.021 35.5771 58.318 35.3754 58.6053C35.2268 58.8146 35.0226 59.0107 34.7952 59.1359C34.4936 59.3067 33.3797 59.2404 32.7114 59.0498C35.1247 57.0023 36.1272 54.2539 36.8512 51.344L36.883 51.3678C37.4413 51.7847 37.4572 51.7966 37.3524 52.1662C37.2389 52.5681 37.1143 52.967 36.9897 53.3659C36.9005 53.6518 36.8112 53.9377 36.7259 54.2248C36.6982 54.3257 36.6837 54.4306 36.6647 54.5685C36.6519 54.6615 36.637 54.7695 36.6145 54.9014C36.9955 54.4035 37.1752 53.86 37.3574 53.3089C37.5526 52.7187 37.7506 52.1198 38.2018 51.5588C38.2463 52.3661 38.0047 53.0346 37.775 53.6704C37.5737 54.2275 37.3815 54.7594 37.3989 55.3376C37.9906 54.6406 38.1873 53.8011 38.3867 52.9505C38.4859 52.5269 38.5858 52.1006 38.7355 51.6877C39.3974 51.6999 39.828 51.3199 40.2706 50.9294C40.4672 50.7559 40.6662 50.5803 40.8889 50.4361C40.9219 50.5838 40.9507 50.7164 40.9778 50.8413C41.0079 50.9799 41.036 51.1089 41.0653 51.2382C41.0421 49.9842 41.3809 48.8562 42.1095 47.8229C42.207 48.2469 42.2116 48.6587 42.207 49.0701C42.2023 50.2781 42.8057 50.9536 44.017 50.8654C44.7642 50.8115 45.5207 50.5618 46.2307 50.2926C46.7432 50.0975 47.2313 49.8413 47.7165 49.5867C47.9343 49.4723 48.1516 49.3583 48.3703 49.2503C48.9225 49.9289 48.9643 50.1696 48.4445 50.7202C48.1695 51.0133 47.8461 51.2656 47.4842 51.5478C47.3087 51.6847 47.1241 51.8286 46.9315 51.9878C47.8829 51.7815 48.4631 51.3345 48.9133 50.6875C49.31 50.1135 49.0965 49.5449 48.8923 49.0005C48.8791 48.9653 48.8659 48.9302 48.8529 48.8952C49.2023 48.6122 49.5455 48.3344 49.8845 48.0601C50.518 47.5475 51.1368 47.0467 51.7536 46.5454C51.7768 46.5232 51.8093 46.4769 51.8046 46.4533C51.7989 46.4356 51.7773 46.4229 51.741 46.4013C51.7184 46.3879 51.69 46.371 51.6561 46.3475C51.5557 46.4113 51.4522 46.4756 51.347 46.5408C51.1121 46.6867 50.8692 46.8374 50.6351 46.9999C50.3722 47.1817 50.113 47.3683 49.8537 47.5548C49.5225 47.7932 49.1914 48.0315 48.8529 48.2597C48.8395 48.2686 48.8258 48.2777 48.812 48.287C48.6012 48.4277 48.3472 48.5972 48.1382 48.5737C47.4054 48.4925 46.8083 48.7864 46.2091 49.0814C46.1252 49.1227 46.0413 49.164 45.9569 49.2043C45.3118 49.5107 44.6342 49.6148 43.9288 49.5099C43.6318 49.4659 43.3162 49.4042 43.2373 49C43.7728 48.3335 44.4956 47.9145 45.2249 47.4918C45.3235 47.4346 45.4222 47.3774 45.5207 47.3194C46.4442 46.7752 47.3632 46.2182 48.2125 45.5725C48.6858 45.2134 49.0803 44.705 49.3727 44.1893C49.8275 43.3902 49.5816 42.9618 48.6766 42.7203C48.6058 42.7018 48.5388 42.6775 48.4374 42.6406C48.3793 42.6195 48.3098 42.5943 48.2217 42.5637C48.5824 42.3965 48.9041 42.2469 49.2108 42.1041C49.5475 41.9475 49.8662 41.7992 50.1988 41.6453C50.2787 41.9379 50.3585 42.2233 50.4401 42.5151C50.5008 42.732 50.5625 42.9525 50.6258 43.1819C50.6762 43.1622 50.7298 43.1472 50.7817 43.1327C50.8923 43.1017 50.9946 43.0731 51.0389 43.0063C51.2141 42.7549 51.1137 42.5467 50.9999 42.3109C50.8968 42.0969 50.7826 41.8601 50.8532 41.5475C50.9148 41.4967 50.9853 41.4347 51.0631 41.3662C51.2553 41.1973 51.4927 40.9886 51.7536 40.8081C52.0947 40.5694 52.4442 40.3402 52.7937 40.111C53.3096 39.7727 53.8257 39.4342 54.3154 39.0649C54.7656 38.7262 55.1647 38.2926 55.4942 37.8363C55.7031 37.5467 55.8098 37.1422 55.833 36.7808C55.8702 36.1181 55.3968 35.7358 54.7192 35.8166C54.1112 35.8888 53.61 36.1953 53.248 36.6428C52.9254 37.0402 52.6375 37.4644 52.3495 37.8886C52.1899 38.1236 52.0304 38.3586 51.865 38.5891C51.7589 38.7368 51.6533 38.8848 51.5478 39.0329C51.1038 39.6555 50.6602 40.2777 50.1803 40.873C49.9389 41.1695 49.6187 41.4523 49.1082 41.5135C49.153 41.3001 49.2117 41.0936 49.2687 40.893C49.389 40.4699 49.5018 40.0729 49.4609 39.6923C49.4164 39.2909 49.2193 38.9054 49.0205 38.5164C48.9292 38.3378 48.8375 38.1585 48.7601 37.9766C48.8535 37.9258 48.9483 37.8771 49.043 37.8285C49.2541 37.7199 49.465 37.6115 49.6605 37.4809C50.8439 36.6973 51.4009 35.5865 51.3498 34.2027C51.3127 33.1345 51.0156 32.8591 49.8972 32.7133C49.846 32.7061 49.7987 32.6756 49.7388 32.6369C49.7064 32.6159 49.6703 32.5926 49.628 32.5693C49.8335 32.403 50.0335 32.244 50.2288 32.0888C50.629 31.7706 51.0096 31.4681 51.3777 31.1503C53.4986 29.3152 55.4107 27.305 56.8634 24.9075C56.9394 24.7777 56.9874 24.6293 57.0353 24.481C57.0575 24.4122 57.0797 24.3435 57.1047 24.2766C56.5766 24.8114 56.1274 25.381 55.6817 25.9463C55.5164 26.1559 55.3515 26.365 55.1833 26.5715C53.6842 28.4078 51.9578 30.0235 50.1571 31.5714C50.0819 31.6356 50.0016 31.6986 49.9207 31.7621C49.6572 31.969 49.3878 32.1804 49.2706 32.4505C48.9858 33.1247 48.4893 33.1295 47.8528 33.1357C47.784 33.1363 47.7136 33.137 47.6416 33.1385C47.7188 33.0005 47.7939 32.8725 47.8653 32.7506C48.0258 32.4769 48.1683 32.2338 48.2774 31.9765C48.3506 31.7998 48.4245 31.6233 48.4984 31.4466C48.8465 30.6149 49.1954 29.7812 49.4748 28.9266C49.744 28.0904 49.4516 27.7173 48.5373 27.4798C48.4675 27.4618 48.3999 27.4403 48.3241 27.416C48.289 27.4048 48.2521 27.3931 48.2125 27.3809C48.2125 27.1445 48.213 26.9111 48.2135 26.6796C48.2145 26.2226 48.2155 25.7734 48.2125 25.3243C48.1939 23.4091 47.6973 21.6747 46.2447 20.2965C46.1917 20.249 46.1638 20.1794 46.1358 20.1094C46.1221 20.0751 46.1083 20.0406 46.0915 20.0087C46.0882 20.0079 46.0849 20.0071 46.0816 20.0063C46.1306 19.9217 46.1866 19.8382 46.2426 19.7548C46.3723 19.5616 46.5022 19.368 46.5463 19.158C46.5972 18.9118 46.6497 18.6654 46.7024 18.4189C46.9332 17.3374 47.1648 16.2524 47.2518 15.1585C47.4421 12.815 47.1636 10.4852 46.6438 8.19218C46.4685 7.4215 46.2565 6.6588 46.0417 5.88558C45.9322 5.49187 45.8221 5.09544 45.7156 4.69384C46.4576 5.3514 47.1786 5.98758 47.8306 6.56285L47.9294 6.65003C48.5559 10.3772 48.2125 14.0462 47.7994 17.7152C48.5652 14.1651 49.0432 10.6005 48.5048 6.90017C48.6024 6.96912 48.6952 7.03442 48.7846 7.09736C48.9589 7.22007 49.1204 7.33379 49.2799 7.44812C49.397 7.53135 49.5142 7.61499 49.6303 7.69793C49.758 7.78914 49.8846 7.87949 50.0085 7.96747C50.0493 8.41569 50.09 8.832 50.1307 9.24834L50.1339 9.28082L50.3195 9.29081C50.374 9.0983 50.4267 8.90563 50.481 8.70742C50.5145 8.58497 50.5486 8.4604 50.584 8.33246C52.1249 9.42654 52.1852 9.49646 52.1434 11.1394C52.0692 14.0984 51.5215 16.9816 50.6165 19.8032C50.5689 19.9534 50.5495 20.1123 50.5302 20.271C50.5212 20.3444 50.5122 20.4178 50.5005 20.4903C51.2523 18.9808 51.8093 17.4215 52.1017 15.7899C52.3048 14.6679 52.4732 13.5407 52.6484 12.3678C52.7294 11.8257 52.8119 11.2738 52.8999 10.7081C52.973 10.8071 53.0375 10.8922 53.0958 10.969C53.2039 11.1116 53.2902 11.2254 53.3687 11.3455C53.7678 11.9833 54.1205 12.5808 54.0091 13.4329C53.3919 18.1824 52.1388 22.6807 48.9736 26.4828C48.8736 26.6017 48.8032 26.7426 48.7212 26.9067C48.6777 26.994 48.6308 27.0878 48.5745 27.1884C48.6534 27.1712 48.7143 27.1618 48.7617 27.1544C48.837 27.1427 48.8784 27.1363 48.904 27.1126C48.918 27.0985 48.932 27.0843 48.946 27.0702C49.1459 26.8689 49.3481 26.6655 49.5259 26.4475C52.1341 23.3073 53.6889 19.685 54.6357 15.784C54.6552 15.7044 54.6714 15.6238 54.6879 15.5418C54.75 15.2337 54.8163 14.9048 55.0766 14.5229C55.2197 14.8077 55.3891 15.0577 55.5517 15.2975C55.8581 15.7495 56.1401 16.1656 56.1765 16.712L56.1811 16.7079C56.2198 16.7485 56.2606 16.7882 56.3015 16.8282C56.3686 16.8935 56.4362 16.9595 56.4967 17.0311C57.1325 17.7897 57.281 18.5452 56.8494 19.5207C55.9259 21.6063 54.9698 23.6577 53.5589 25.4796C53.0931 26.0808 52.6428 26.6944 52.1926 27.3078ZM46.0737 20.0045C45.1958 19.7959 45.1905 19.7976 44.4068 20.0555C44.368 20.0305 44.3283 20.0048 44.2878 19.9786C44.1491 19.889 44.0018 19.7938 43.8545 19.6999C43.6967 19.5997 43.5389 19.5011 43.3811 19.4031C43.7617 16.1381 43.1955 12.9957 42.5272 9.86463C42.3555 9.05383 42.1652 8.2453 41.9378 7.44721C41.4644 5.75433 40.6661 4.21853 39.543 2.84661C39.4165 2.69127 39.2856 2.53909 39.1122 2.33744C39.0312 2.24327 38.941 2.13831 38.8376 2.0172C39.0101 2.03599 39.1581 2.04813 39.2896 2.05892C39.5329 2.07888 39.7196 2.0942 39.9004 2.13841C41.3577 2.49887 42.7825 2.95421 44.1051 3.68329C44.495 3.89848 44.7456 4.1745 44.9498 4.56083C45.8595 6.30046 46.2075 8.19082 46.5324 10.0857C46.7134 11.1616 46.848 12.2485 46.9408 13.3353C47.0801 14.9646 46.8016 16.5644 46.4674 18.1542C46.3392 18.771 46.2065 19.3877 46.0737 20.0045ZM33.2637 51.0234C30.8736 54.1768 28.2096 56.7753 24.5942 58.3724C25.28 58.5682 25.9599 58.7018 26.6362 58.8347L26.6364 58.8347C26.8067 58.8681 26.9769 58.9016 27.1468 58.9359C27.6666 59.0407 28.1168 58.9398 28.5762 58.6779C29.8943 57.9311 31.0406 56.9973 32.0292 55.871C32.4029 55.4436 32.7737 55.012 33.1439 54.5811L33.4261 54.2527C33.3194 54.9945 32.8831 55.5454 32.4422 56.0881L32.3281 56.2287L32.3281 56.2287C31.9348 56.7135 31.5411 57.199 31.101 57.6447C30.7693 57.9842 30.4098 58.2987 30.0106 58.6479L30.0106 58.6479L30.0104 58.648C29.8231 58.8119 29.627 58.9834 29.4209 59.1688C29.6029 59.185 29.7624 59.1961 29.9067 59.2062C30.182 59.2254 30.4021 59.2407 30.6183 59.2803C31.463 59.4379 32.0477 59.1033 32.6511 58.5286C34.6889 56.5948 35.5529 54.0866 36.4185 51.574C36.4636 51.4428 36.5088 51.3117 36.5542 51.1806C36.6563 50.8869 36.596 50.5836 36.1922 50.4061C35.4264 51.3802 34.3822 51.3808 33.2637 51.0234ZM47.6063 43.5867C48.0298 43.3716 48.4629 43.1517 49.0664 43.3227C49.1453 44.0072 48.8204 44.4408 48.4027 44.7635C47.6834 45.3196 46.9455 45.8658 46.1518 46.3111C45.4204 46.7222 44.6599 47.0848 43.8905 47.4517L43.8903 47.4518L43.8903 47.4518C43.5515 47.6133 43.2111 47.7757 42.8706 47.9433C42.7692 47.5155 42.9793 47.1633 43.1867 46.8158C43.226 46.7499 43.2653 46.6841 43.3022 46.6181C43.7896 45.7468 44.3836 45.0233 45.4278 44.6869C45.8995 44.5354 46.3372 44.2854 46.775 44.0353C47.005 43.9039 47.235 43.7725 47.4699 43.6554C47.5154 43.6329 47.5608 43.6098 47.6063 43.5867ZM43.2094 45.578C42.7588 45.8993 42.5702 46.0338 42.504 46.2134C42.4563 46.3426 42.4722 46.4953 42.4994 46.7578C42.7094 46.4097 42.8932 46.1041 43.0715 45.8074L43.0716 45.8073L43.2094 45.578ZM35.38 35.5693C35.4151 35.407 35.4713 35.2453 35.5283 35.081C35.7199 34.5293 35.9215 33.9486 35.3707 33.2199C35.2315 34.1488 35.1944 34.8574 35.38 35.5693ZM45.4396 39.314C45.548 39.2431 45.6653 39.1663 45.7945 39.0798C45.8455 40.785 45.2376 41.2135 43.8638 40.5313C43.985 40.4316 44.1016 40.3331 44.216 40.2365L44.2161 40.2364L44.2163 40.2363L44.2165 40.2361L44.2166 40.236L44.2166 40.236L44.2166 40.236L44.2167 40.236L44.2167 40.2359L44.2167 40.2359L44.2168 40.2359L44.2168 40.2358L44.2168 40.2358C44.4263 40.0589 44.6285 39.8882 44.8384 39.7272C45.0183 39.5895 45.209 39.4648 45.4396 39.314ZM51.865 39.7875C51.9135 39.8398 51.9662 39.8923 52.0192 39.9451L52.0274 39.9533C53.0113 39.4007 53.9674 38.8062 54.747 37.9858C54.9977 37.7207 55.1879 37.3692 55.3086 37.0252C55.3689 36.8626 55.2668 36.5788 55.1322 36.4391C55.0487 36.3463 54.7285 36.3341 54.6125 36.4187L54.5431 36.4692L54.4488 36.5373C54.0428 36.8306 53.6265 37.1314 53.3362 37.5144C52.9432 38.023 52.6089 38.5728 52.2749 39.1223L52.2749 39.1224L52.2747 39.1227L52.2746 39.1228L52.2745 39.1229L52.2745 39.123L52.2744 39.1232L52.2743 39.1233L52.2742 39.1234L52.2741 39.1235L52.2741 39.1237L52.274 39.1238L52.2739 39.1239C52.1388 39.3461 52.0038 39.5682 51.865 39.7875ZM44.5414 44.0604C43.7617 44.68 43.2976 44.6814 42.3276 43.8433L43.4836 43.0373C44.2284 42.5181 44.9649 42.0047 45.7481 41.4573L45.9133 41.6079L45.9136 41.6081C46.2192 41.8865 46.5485 42.1866 46.9408 42.5428C46.8401 42.595 46.7472 42.6403 46.6604 42.6826L46.6603 42.6826C46.4951 42.7631 46.3523 42.8327 46.2215 42.9182C46.0967 42.9997 45.971 43.0804 45.8452 43.1612L45.8452 43.1612C45.4002 43.4469 44.9539 43.7334 44.5414 44.0604ZM46.8619 36.9007C48.0175 37.7615 48.4816 37.7842 49.512 37.0097C49.7533 36.8291 49.9946 36.6138 50.1431 36.362L50.1713 36.3138C50.5158 35.7245 50.8719 35.1153 50.5376 34.304C49.6061 34.7125 48.8562 35.3264 48.1122 35.9357L48.1122 35.9357C47.7034 36.2704 47.2964 36.6037 46.8619 36.9007ZM46.2766 41.2077C46.2146 41.162 46.1545 41.1177 46.1008 41.0728C46.1781 40.7065 46.2501 40.3625 46.3222 40.0179L46.3231 40.0136C46.4151 39.5737 46.5074 39.1327 46.6113 38.643C46.9083 38.5332 47.3678 38.3639 47.8087 38.2023C48.9272 38.8923 49.1592 39.4494 48.7833 40.5529C48.6998 40.8017 48.593 41.0473 48.4584 41.2743C47.9386 42.1619 47.4513 42.5844 46.6763 41.5662C46.5697 41.4238 46.4183 41.3122 46.2766 41.2077ZM43.1352 41.4718C43.1053 41.3906 43.0647 41.3092 43.025 41.2292C42.9413 41.0609 42.8609 40.8992 42.8892 40.7604C43.2001 39.3553 44.0309 38.6049 45.4882 38.4366C46.1054 38.3648 46.6252 38.1342 47.1961 37.8337C46.5881 37.3275 46.0729 37.3089 45.4371 37.6311C44.8477 37.9312 44.2073 38.2477 43.5065 37.8046C43.3858 37.7297 43.1213 37.7888 42.9681 37.8677C42.5394 38.0887 42.12 38.3262 41.675 38.5783L41.6748 38.5784L41.6746 38.5785C41.4935 38.6811 41.3082 38.786 41.1163 38.8932L41.3076 39.1082C41.5186 39.3454 41.6896 39.5375 41.8775 39.7482C42.0356 39.5183 42.1658 39.3334 42.3057 39.1346L42.4576 38.9186C42.931 39.6935 42.7685 40.4073 42.5226 41.0578C42.3411 41.5323 42.3941 41.9466 42.4625 42.4808C42.4763 42.5887 42.4907 42.7015 42.504 42.8206L43.2819 42.3582C43.7866 42.0582 44.2553 41.7796 44.7595 41.4791C44.1748 41.2466 43.9295 41.1491 43.7059 41.1852C43.5443 41.2112 43.394 41.307 43.1352 41.4718ZM26.3614 39.3269C26.9981 38.954 27.0413 38.3869 27.0853 37.8095C27.1093 37.4954 27.1334 37.1782 27.2535 36.8876C25.8612 36.0632 24.5246 35.2713 23.1926 34.4792C23.5454 34.4134 23.8099 34.5187 24.0605 34.6477C24.5166 34.8803 24.9569 35.143 25.3972 35.4057C26.4264 36.0197 27.4557 36.6338 28.6876 36.8643C29.0092 36.9251 29.3111 37.0878 29.6128 37.2503L29.6128 37.2503L29.6129 37.2504L29.6129 37.2504L29.613 37.2504L29.6131 37.2505C29.7511 37.3248 29.8891 37.3992 30.0289 37.4637C30.5255 36.3559 30.2285 35.6133 29.2213 35.0639C28.8179 34.8429 28.449 34.5569 28.0824 34.2727C27.9641 34.1809 27.8459 34.0893 27.7269 34.0002C27.525 33.8502 27.3299 33.6907 27.1353 33.5316C27.0526 33.464 26.9699 33.3964 26.8869 33.3297C27.6803 33.623 28.3631 34.0811 29.0576 34.5471L29.0576 34.5471L29.0577 34.5471L29.0579 34.5473L29.0581 34.5474C29.3384 34.7355 29.6206 34.9248 29.9129 35.1052C30.0069 34.6672 29.8237 34.421 29.6446 34.1805C29.6027 34.1241 29.5609 34.068 29.523 34.0098C29.1703 33.4687 29.2121 33.2223 29.6715 32.7083C29.7376 32.6357 29.8094 32.569 29.8809 32.5028L29.8809 32.5028L29.8809 32.5027L29.8809 32.5027L29.881 32.5027L29.8811 32.5026L29.8812 32.5025L29.8813 32.5023C29.9201 32.4663 29.9588 32.4304 29.9963 32.3938C30.5803 32.6956 30.9629 32.3912 31.401 32.0426C31.497 31.9662 31.5956 31.8877 31.6997 31.813C31.6391 31.6901 31.5822 31.5636 31.5251 31.4365L31.5251 31.4365L31.5251 31.4365L31.5251 31.4364L31.5251 31.4364C31.4029 31.1644 31.2793 30.8896 31.1149 30.6408C30.8134 30.1869 30.4902 29.7462 30.1668 29.3052L30.1667 29.3051L30.1667 29.3051L30.1667 29.305L30.1666 29.305C29.9723 29.04 29.7778 28.7749 29.588 28.5067C29.5209 28.4114 29.478 28.2997 29.435 28.1879L29.435 28.1879C29.4156 28.1373 29.3962 28.0868 29.3745 28.0377C29.3931 28.0286 29.4128 28.0197 29.4325 28.0107L29.4701 27.9935L29.4905 27.9838C30.0846 28.6883 30.674 29.3923 31.2634 30.0974C31.087 28.7465 30.4698 27.6328 29.6205 26.644C28.8361 25.7343 28.2978 24.6974 27.8801 23.596C27.5274 22.6746 27.6759 22.186 28.5345 21.6817C28.8868 21.4723 29.2944 21.3451 29.6996 21.2186L29.6997 21.2185L29.6998 21.2185C29.8069 21.1851 29.9139 21.1517 30.0196 21.1168C30.1803 21.0637 30.3492 21.0371 30.5606 21.0037C30.6667 20.987 30.7835 20.9686 30.9153 20.9443C29.6251 18.068 28.3813 15.2837 27.1375 12.4995C27.2118 12.4668 27.286 12.4346 27.3649 12.4024C28.7062 15.227 30.0521 18.0521 31.4258 20.9335C31.5887 20.9096 31.7515 20.8846 31.9144 20.8596C33.0376 20.687 34.1639 20.514 35.315 20.7196C35.807 20.8078 36.3129 20.8948 36.8048 20.8741C38.0579 20.8214 39.1578 21.1404 40.1417 21.9046C40.3273 22.0466 40.6569 22.1723 40.8471 22.1056C41.4041 21.9099 41.7336 22.1801 42.0724 22.5084C42.6386 23.059 42.9031 23.7549 43.1445 24.4844C43.177 24.5863 43.1917 24.698 43.2065 24.8108C43.2438 25.0959 43.2821 25.3878 43.6123 25.5441C43.5553 25.2475 43.497 24.9511 43.4386 24.6546L43.4385 24.654C43.3466 24.1865 43.2546 23.7189 43.1677 23.2502C42.9959 22.324 42.8242 21.397 42.6804 20.4658C42.6479 20.2575 42.6943 20.0042 42.7917 19.8167C43.46 18.5438 43.409 17.1659 43.2512 15.8353C43.0563 14.1956 42.7036 12.5644 42.2951 10.9592C41.7707 8.87496 41.2323 6.77805 40.035 4.92855C39.8218 4.59731 39.5968 4.27273 39.3718 3.94814L39.3718 3.9481L39.3718 3.94807L39.3717 3.94803L39.3716 3.94777C39.0332 3.45971 38.6949 2.9716 38.3967 2.46074C37.8212 1.47515 36.9394 1.41977 35.8998 1.46698C35.9299 1.53234 35.9519 1.58949 35.9712 1.63964C36.0025 1.72082 36.0267 1.78367 36.0669 1.83334C37.2457 3.262 38.03 4.89405 38.7215 6.5842C39.6637 8.90311 40.383 11.2888 40.9492 13.7171C41.4598 15.8903 41.8682 18.0798 41.6454 20.3306C41.642 20.3661 41.6397 20.4022 41.6375 20.4382V20.4382C41.6249 20.6442 41.6126 20.8437 41.3716 20.9012C41.3354 20.4298 41.3067 19.9602 41.2781 19.4926L41.2781 19.4925L41.2781 19.4924L41.2781 19.4923L41.2781 19.4921L41.278 19.492L41.278 19.4919L41.278 19.4918L41.278 19.4917C41.2114 18.4017 41.1455 17.3223 40.9864 16.2557C40.4387 12.4986 39.3202 8.88858 37.617 5.47831C37.1432 4.53031 36.5476 3.64069 35.9521 2.75137C35.7426 2.43845 35.5331 2.12556 35.329 1.81018C35.1944 1.59682 34.9855 1.39888 34.7674 1.27086C34.475 1.1038 33.2823 1.16418 32.7996 1.30672C37.2039 6.50611 39.3945 17.6367 38.7169 20.4568C38.5944 19.7005 38.4998 18.9399 38.4053 18.1795L38.4052 18.1794L38.4052 18.1793L38.4052 18.1792L38.4052 18.1791C38.2883 17.2394 38.1715 16.3001 38.0022 15.37C37.7127 13.7945 37.2988 12.2397 36.886 10.6887L36.8859 10.6885L36.8141 10.4185C36.3639 8.73287 35.6863 7.12579 34.8463 5.59408C34.2626 4.53638 33.6587 3.49008 33.0658 2.4628C32.8055 2.01167 32.5472 1.5642 32.2937 1.12105C30.6276 1.04387 30.2934 1.11378 29.1239 1.8061C28.6412 2.0912 28.1307 2.18063 27.5738 2.15566C27.461 2.15066 27.3472 2.13501 27.2323 2.11921C26.9402 2.07907 26.641 2.03794 26.3346 2.16792C26.4123 2.34056 26.4847 2.50011 26.5614 2.66922L26.5615 2.66943C26.6452 2.85381 26.734 3.04956 26.8405 3.28606C26.5552 3.14908 26.3637 2.88843 26.1807 2.63934C25.8459 2.18346 25.5394 1.76632 24.7381 2.21695C24.882 2.44735 25.0248 2.6707 25.1652 2.89034C25.4232 3.2939 25.6732 3.68493 25.9076 4.08415C26.2743 4.70519 26.6177 5.33985 26.9519 5.97814C26.9991 6.06931 27.0465 6.16046 27.0939 6.25165L27.094 6.25169L27.094 6.25172L27.094 6.25175L27.094 6.25179C27.396 6.8326 27.6989 7.41499 27.9636 8.01332C28.0236 8.15097 28.0914 8.2866 28.1607 8.42516C28.4023 8.90854 28.6618 9.42766 28.6691 10.1933C28.4607 9.78352 28.2563 9.37756 28.0539 8.97564L28.0538 8.9756C26.827 6.53952 25.6751 4.25208 24.1812 2.16066C22.826 2.1711 21.8653 2.81983 20.9603 3.58478C21.0181 3.70943 21.0739 3.82898 21.1282 3.94535C21.2178 4.13752 21.3035 4.32103 21.3873 4.50454L21.3586 4.51784L21.3153 4.53747C21.2909 4.54847 21.2666 4.55947 21.2434 4.57036C21.1273 4.44442 21.0123 4.31858 20.8931 4.18827L20.8925 4.1876C20.7546 4.03676 20.6112 3.87994 20.4544 3.71008C20.2095 3.7998 19.9701 3.89656 19.7329 3.99239L19.7329 3.9924L19.7329 3.99241L19.7328 3.99242L19.7328 3.99244C19.2105 4.2035 18.6994 4.41002 18.1664 4.52678C17.1175 4.7574 16.4028 5.37345 15.7716 6.14702C15.7391 6.17699 15.7067 6.20649 15.6788 6.23645C15.2361 6.68806 15.5058 7.07973 15.7573 7.44479L15.7573 7.44487C15.7826 7.48162 15.8078 7.5181 15.832 7.55435C16.9829 9.29853 18.1478 11.0345 19.322 12.7633C20.7002 14.7881 22.081 16.8113 23.4617 18.8344L23.4649 18.8391L23.4655 18.84L23.4661 18.8408L23.4667 18.8417C24.7205 20.6789 25.9741 22.5158 27.2257 24.3537C27.3007 24.4656 27.363 24.5862 27.4255 24.7071C27.4558 24.7659 27.4862 24.8247 27.5181 24.8825C27.4531 24.9235 27.3881 24.9639 27.3232 25.0042C27.0629 24.6591 26.8009 24.3153 26.5389 23.9714L26.5387 23.9712L26.5385 23.9709L26.5383 23.9706L26.5381 23.9703C25.9546 23.2046 25.3712 22.439 24.8077 21.6598C23.1304 19.3395 21.4567 17.0166 19.7829 14.6936L19.7804 14.6902C18.1854 12.4765 16.5903 10.2627 14.9919 8.051C14.8314 7.8255 14.642 7.61805 14.4729 7.43282L14.4728 7.4327L14.4728 7.43268C14.3975 7.35022 14.3262 7.27216 14.2633 7.19888C12.7364 7.49125 11.9845 8.45458 11.3626 9.55956C11.4063 9.61805 11.4414 9.66888 11.4728 9.71423L11.4728 9.71429C11.5181 9.77979 11.5555 9.8339 11.5993 9.88325C12.2992 10.6605 13.002 11.4353 13.7047 12.2101L13.705 12.2105L13.7058 12.2114L13.7059 12.2115L13.706 12.2115L13.7061 12.2116L13.7061 12.2117C15.2069 13.8665 16.7076 15.5211 18.1803 17.1991C21.1459 20.5808 24.0791 23.9932 27.0076 27.4062C27.8524 28.3919 28.6652 29.4042 29.4779 30.4164L29.478 30.4164C29.643 30.6219 29.8079 30.8274 29.9732 31.0327C30.0747 31.1568 30.1437 31.305 30.2127 31.4533L30.2127 31.4534L30.2128 31.4534L30.2128 31.4534L30.2128 31.4535C30.2448 31.5222 30.2767 31.5909 30.312 31.6573C29.6029 31.3831 29.1907 30.8524 28.7812 30.325L28.7811 30.325C28.6251 30.124 28.4694 29.9236 28.2978 29.738C27.902 29.306 27.5226 28.8577 27.143 28.4093L27.1429 28.4092C26.8815 28.1004 26.62 27.7916 26.3532 27.4879C25.9605 27.0393 25.5587 26.5966 25.1569 26.1541L25.1569 26.154L25.1568 26.1539L25.1567 26.1538L25.1567 26.1537L25.1565 26.1535C24.9173 25.8901 24.6782 25.6267 24.4411 25.3621C23.7774 24.6234 23.1184 23.8843 22.464 23.1403C22.0286 22.647 21.5975 22.1507 21.1663 21.6541L21.1662 21.654L21.1654 21.653C20.9719 21.4302 20.7784 21.2074 20.5844 20.9847L20.27 20.6226C19.7249 19.9948 19.1793 19.3663 18.6305 18.7407C18.004 18.0226 17.3774 17.3067 16.7416 16.5944C16.4121 16.224 16.0803 15.8556 15.7485 15.4872C15.4167 15.1188 15.0848 14.7504 14.7552 14.3799C14.2733 13.8403 13.7966 13.2981 13.3192 12.755C13.1669 12.5817 13.0144 12.4083 12.8617 12.2348C12.447 11.7601 12.0323 11.284 11.6078 10.7965L10.8893 9.97177C10.6201 10.1874 10.4252 10.3418 10.2256 10.4966C10.487 10.8047 10.6012 10.9392 10.6701 11.094C10.7236 11.214 10.7498 11.3461 10.7964 11.5807C10.4576 11.3056 10.1467 11.0531 9.78005 10.7576C9.68066 10.8648 9.58429 10.9657 9.49111 11.0632L9.49102 11.0633L9.49093 11.0634C9.30136 11.2617 9.125 11.4463 8.96323 11.6429C8.7451 11.9071 8.54554 12.1876 8.37382 12.4836C7.79833 13.5078 7.94684 14.5025 8.81472 15.3169C9.49015 15.9508 10.1726 16.5784 10.8552 17.206C11.4108 17.7169 11.9664 18.2278 12.5183 18.7422C14.4721 20.5657 16.4214 22.3944 18.3706 24.2275C18.5313 24.3799 18.6735 24.5532 18.8151 24.7259L18.8151 24.7259L18.8152 24.7259L18.8152 24.7259L18.8152 24.7259L18.8154 24.7261C18.8741 24.7977 18.9327 24.8691 18.9925 24.939C17.709 24.41 16.7523 23.5172 15.7987 22.6272C15.4868 22.3362 15.1752 22.0455 14.8527 21.7678C13.5207 20.6201 12.2212 19.438 10.9264 18.2505C10.0464 17.4435 9.17713 16.6248 8.31723 15.8148L8.31658 15.8142L8.31609 15.8137C7.91567 15.4365 7.51727 15.0612 7.12074 14.6899C6.50812 14.8021 6.14612 15.0699 6.03474 15.503C7.22438 16.6615 8.48151 17.7072 9.72895 18.7449L9.72899 18.7449L9.72908 18.745L9.72914 18.745L9.72923 18.7451L9.72928 18.7452C10.8858 19.7072 12.034 20.6623 13.1123 21.6939C13.0652 21.745 13.0221 21.7964 12.9792 21.8476L12.9791 21.8477L12.9684 21.8604L12.9583 21.8523C10.5622 19.9361 8.16611 18.0198 5.6913 16.0373C5.01835 17.1019 4.6285 18.1788 4.32683 19.3391C4.93502 19.7898 5.53699 20.2427 6.13687 20.6941L6.13768 20.6947L6.13849 20.6953L6.13902 20.6957C7.47935 21.7042 8.80924 22.7049 10.1745 23.655C13.2254 25.7775 16.2929 27.8766 19.3604 29.9756L19.3606 29.9758C20.88 31.0155 22.3993 32.0552 23.9166 33.0977C24.1198 33.2371 24.311 33.3924 24.5033 33.5485L24.5035 33.5486C24.6055 33.6314 24.7078 33.7145 24.8124 33.7955L24.8092 33.7987C24.7778 33.8299 24.7465 33.861 24.7195 33.8927C24.3878 33.6967 24.0528 33.5057 23.718 33.3147L23.7178 33.3146L23.7177 33.3145L23.7177 33.3145C22.9892 32.8991 22.2613 32.4839 21.5683 32.0187C16.7644 28.791 11.9716 25.5434 7.17995 22.2966L5.47317 21.1401C5.12399 20.9037 4.78382 20.6532 4.43854 20.3989L4.43842 20.3988C4.2881 20.2881 4.13682 20.1767 3.9834 20.0654C3.58891 20.5281 3.64924 21.001 3.73742 21.4887L4.54428 22.0095C5.83719 22.844 7.11638 23.6696 8.39238 24.4986C8.58532 24.6241 8.7703 24.7619 8.95534 24.8997C9.01511 24.9443 9.07489 24.9888 9.13495 25.0329C9.16279 25.0542 9.19992 25.0973 9.19528 25.1237C9.19234 25.1409 9.17081 25.1549 9.1201 25.1878C9.09069 25.2068 9.05146 25.2323 9.00036 25.2684C7.27389 24.1808 5.50566 23.0675 3.72814 21.9491C3.61908 22.268 3.50575 22.5956 3.3902 22.9296L3.38985 22.9307L3.38978 22.9308L3.38974 22.931C3.26449 23.293 3.13664 23.6626 3.00878 24.0369C3.60011 24.4053 4.18428 24.7707 4.76401 25.1334L4.7723 25.1386L4.77351 25.1394L4.77381 25.1396C5.93793 25.8678 7.0842 26.5849 8.23459 27.2927C9.47062 28.0517 10.7083 28.8077 11.9459 29.5636L11.9469 29.5642C13.6551 30.6076 15.3631 31.6509 17.0665 32.702C17.1171 32.733 17.1747 32.7594 17.2341 32.7867L17.2342 32.7867C17.4637 32.8919 17.7198 33.0093 17.6977 33.4533C13.0998 31.361 8.83968 28.7747 4.51913 26.1517L4.51772 26.1508L4.51583 26.1497L4.51308 26.148L4.50935 26.1457C3.87014 25.7577 3.2296 25.3688 2.58645 24.9806C2.48898 26.2042 2.40545 27.2796 2.32655 28.3083C4.41501 29.578 6.41066 30.7933 8.4063 32.0109C8.43415 32.0286 8.45736 32.0713 8.462 32.1054C8.46482 32.1169 8.45047 32.131 8.42418 32.1569C8.40724 32.1735 8.38535 32.195 8.35989 32.2238C6.38745 31.379 4.50319 30.3253 2.65142 29.1941C2.45186 29.6367 2.73496 29.8055 3.00414 29.9522C3.26874 30.0964 3.53245 30.2426 3.79617 30.3887C4.5732 30.8193 5.35034 31.25 6.15076 31.6323C8.19623 32.6074 10.2495 33.5667 12.303 34.5262L12.3038 34.5265C13.4183 35.0473 14.5329 35.568 15.6463 36.0913C15.7807 36.1541 15.9035 36.239 16.0753 36.3579L16.0753 36.3579C16.1706 36.4238 16.281 36.5002 16.4167 36.5889C16.2756 36.5889 16.1719 36.5935 16.0921 36.597H16.092H16.092C15.9671 36.6024 15.9007 36.6053 15.8412 36.5843C11.3209 34.9532 6.92117 33.0424 2.5586 30.8098V32.1717C2.73075 32.2444 2.8991 32.3151 3.0648 32.3846L3.06493 32.3847C3.44864 32.5457 3.81812 32.7008 4.1876 32.8612C4.67955 33.0765 5.1715 33.2985 5.65881 33.5246L5.86704 33.6207C6.32185 33.8303 6.77526 34.0393 7.2182 34.269C7.3146 34.3188 7.41341 34.3657 7.51241 34.4126C7.89003 34.5917 8.27055 34.7722 8.53161 35.1226C6.92284 34.6977 5.44994 33.9838 3.9736 33.2683C3.52062 33.0488 3.06731 32.8291 2.60965 32.6175C2.43329 33.4083 2.43793 33.6158 2.69319 34.8228C9.61761 37.8863 16.7462 40.5394 24.2554 42.1459C17.5629 41.2685 11.2891 38.9778 5.00763 36.6844L5.00761 36.6844L5.00567 36.6837C4.47941 36.4915 3.95309 36.2994 3.42647 36.108C3.19442 36.9202 3.56571 37.2493 4.19689 37.4451C7.02328 38.3252 9.84967 39.2133 12.6761 40.1026C12.7571 40.1284 12.841 40.1493 12.926 40.1705C13.2401 40.2488 13.5707 40.3313 13.841 40.676C10.6241 39.9645 7.56929 38.9832 4.41022 37.9685C4.14651 37.8837 3.88208 37.7988 3.61676 37.7138C3.65845 37.926 3.6955 38.1113 3.7298 38.2829L3.72982 38.283C3.77951 38.5315 3.82344 38.7512 3.86737 38.9822C4.10012 39.0531 4.32871 39.1236 4.55446 39.1932C5.04445 39.3442 5.52103 39.4911 5.99761 39.6291C6.32405 39.7227 6.6516 39.8094 6.97917 39.8962C7.32222 39.987 7.66531 40.0779 8.00718 40.1766C8.20627 40.2346 8.41111 40.2763 8.6161 40.3181C9.07533 40.4116 9.53533 40.5053 9.93321 40.7827C8.60861 40.7268 7.34831 40.3806 6.08968 40.0348C5.49615 39.8718 4.90299 39.7088 4.30363 39.5765C4.64243 40.9483 5.53815 41.5185 6.82835 41.5944C6.92379 41.6002 7.01732 41.6321 7.11139 41.6642L7.11144 41.6642C7.16373 41.682 7.2162 41.6999 7.26925 41.7134C12.1702 42.9549 17.1593 43.6841 22.1995 44.0831C22.7681 44.1279 23.3367 44.1914 23.9053 44.2549L23.9057 44.2549C24.1723 44.2847 24.439 44.3145 24.7056 44.3424C23.4631 44.5523 22.2362 44.431 21.0114 44.3099C20.6075 44.27 20.2039 44.2301 19.8 44.2021C18.1473 44.0879 16.5034 43.842 14.8641 43.5968L14.864 43.5968L14.7552 43.5805C13.8518 43.4454 12.9539 43.283 12.0555 43.1205C11.3248 42.9883 10.5937 42.8561 9.85895 42.7384C9.07704 42.6125 8.313 42.402 7.53932 42.1888L7.53929 42.1888L7.53927 42.1888L7.53924 42.1888C6.6873 41.9541 5.82367 41.7162 4.91161 41.5845C4.92004 41.6999 4.92479 41.7978 4.92899 41.8842C4.93634 42.0355 4.94197 42.1515 4.96266 42.2645C4.99237 42.4179 5.04086 42.5678 5.08809 42.7138L5.08811 42.7138C5.10728 42.7731 5.12624 42.8317 5.14366 42.8896C5.22912 42.9156 5.30943 42.9417 5.38638 42.9667L5.38654 42.9667C5.55191 43.0204 5.70174 43.0691 5.85374 43.1006C9.32523 43.8148 12.8292 44.3314 16.3471 44.7696C16.5704 44.7973 16.7952 44.8192 17.0203 44.8411L17.0204 44.8411C17.8338 44.9203 18.6505 44.9998 19.4102 45.3574C14.8545 45.1753 10.3974 44.3308 5.91946 43.4824L5.38035 43.3803C5.52886 44.6287 6.20645 45.4191 7.32494 45.6261C9.98426 46.1192 12.6807 46.2654 15.3818 46.3521C15.4662 46.3548 15.5518 46.3528 15.6376 46.3508C15.9528 46.3434 16.2725 46.3359 16.5606 46.5628C15.7743 46.8308 14.9704 46.7916 14.1722 46.7526L14.1721 46.7526L14.1721 46.7526L14.172 46.7526L14.1719 46.7526C13.962 46.7423 13.7526 46.7321 13.5439 46.7275C12.5043 46.7039 11.4647 46.6332 10.4252 46.5618C9.73109 46.514 9.03917 46.4544 8.28817 46.3898L8.28803 46.3898L8.28778 46.3897C7.93411 46.3593 7.56734 46.3277 7.18107 46.2957C7.32781 46.6035 7.46173 46.8962 7.59022 47.1771L7.59026 47.1772L7.59026 47.1772L7.59026 47.1772L7.59027 47.1772C7.85596 47.758 8.09844 48.2881 8.3831 48.7957C8.83792 49.6053 9.52479 49.9793 10.5505 50.0075C15.2565 50.1346 19.8604 49.4146 24.4364 48.5012C25.2761 48.3339 26.0872 48.0277 26.8969 47.7221L26.897 47.722C27.1704 47.6189 27.4436 47.5157 27.7177 47.418C27.8569 47.368 28.0518 47.1044 28.0147 47.013C27.9725 46.903 27.8534 46.8213 27.7269 46.7346C27.6723 46.6971 27.6163 46.6587 27.5645 46.6166C28.0425 46.4019 28.4417 46.0824 28.437 45.4232C28.1489 45.4269 27.8674 45.4593 27.5864 45.4916L27.5864 45.4916C27.0527 45.553 26.521 45.6142 25.9494 45.4785C25.4426 45.3579 24.8835 45.4496 24.3211 45.5419L24.3211 45.5419C24.0286 45.5899 23.7353 45.6381 23.4479 45.6566C23.1799 45.6738 22.9097 45.6495 22.6388 45.6251C22.5157 45.614 22.3924 45.603 22.2691 45.5957L22.2691 45.4087C23.079 45.3476 23.8868 45.2863 24.6583 45.2277L24.6626 45.2274L24.6687 45.227L25.787 45.1421C25.8631 44.9579 25.931 44.7815 25.9961 44.6119L25.9962 44.6119C26.1376 44.2439 26.2666 43.9082 26.4414 43.5956C26.6095 43.2924 26.8226 43.014 27.0525 42.7136L27.0526 42.7136L27.0526 42.7136L27.0527 42.7135L27.0527 42.7134C27.1529 42.5826 27.2561 42.4477 27.3603 42.3048C27.2313 42.2802 27.1199 42.2606 27.0203 42.2431L27.02 42.243C26.8259 42.2089 26.6767 42.1827 26.5295 42.1427C25.6431 41.9003 25.4575 41.6062 25.7406 40.7469C25.8527 40.4039 26.0091 40.0752 26.1655 39.7467C26.2319 39.6071 26.2983 39.4675 26.3614 39.3269ZM43.6238 25.6516L43.6271 25.5509L43.6123 25.5441L43.6178 25.5731L43.6238 25.6516ZM43.6238 25.6516C43.6357 25.8079 43.6488 25.9642 43.6618 26.1204L43.6619 26.1213L43.662 26.1221L43.6621 26.1229L43.6621 26.1237L43.6621 26.1238C43.7566 27.2544 43.851 28.3852 43.5436 29.5073C43.4879 29.7197 43.3858 29.9214 43.163 30.0997C43.2022 29.8726 43.246 29.646 43.2897 29.4194L43.2897 29.4193L43.2897 29.4192L43.2897 29.4191L43.2897 29.419C43.3858 28.9213 43.4818 28.4237 43.5297 27.9215C43.5852 27.3686 43.597 26.8115 43.6089 26.2543C43.6132 26.0534 43.6174 25.8524 43.6238 25.6516ZM44.5182 36.7709C44.468 36.5172 44.4178 36.2692 44.3675 36.0224L42.7809 35.8991L40.7729 35.743C40.7692 35.7172 40.7658 35.6853 40.762 35.6491L40.762 35.6491C40.7514 35.5489 40.7374 35.4158 40.7033 35.2878C40.513 34.5633 40.0907 34.269 39.362 34.3653C38.9814 34.4157 38.6009 34.4923 38.2296 34.5914C37.3246 34.8324 36.9858 35.3536 37.1157 36.2869C37.143 36.4753 37.1802 36.6625 37.2181 36.8539L37.2182 36.8541C37.2384 36.9559 37.2589 37.059 37.2782 37.164C36.2061 37.1064 35.8812 36.7817 35.9462 35.7948C35.9659 35.5169 36.0195 35.2414 36.0731 34.9657V34.9657V34.9657V34.9656C36.1206 34.7212 36.1682 34.4766 36.1922 34.23C36.2757 33.3724 36.0854 33.1291 35.0505 32.7078C35.0406 32.7254 35.0248 32.7462 35.0071 32.7693C34.9666 32.8224 34.9163 32.8882 34.9066 32.9584C34.8769 33.2273 34.8433 33.4962 34.8097 33.7651L34.8097 33.7652C34.7171 34.5054 34.6244 35.2458 34.6142 35.9878C34.6003 36.8739 35.0319 37.5668 35.9416 37.9308C36.1591 38.0189 36.3495 38.1789 36.5728 38.3664C36.6831 38.459 36.8013 38.5582 36.9347 38.6589C36.8031 38.7523 36.6857 38.8363 36.5776 38.9137L36.5756 38.9151L36.5754 38.9153L36.5744 38.916L36.5744 38.916C36.3639 39.0667 36.1885 39.1922 36.0112 39.3128C35.5796 39.6027 35.1479 39.5946 34.7117 39.3218C34.5493 39.2206 34.3822 39.122 34.2151 39.0317C33.4493 38.6231 32.7021 38.6386 32.1081 39.2905C31.7089 39.7276 31.2773 39.7563 30.7622 39.6623C30.0428 39.5334 29.3235 39.4289 28.5623 39.4752C29.458 39.7191 30.3538 39.9627 31.2541 40.2065C31.2448 40.2533 31.2356 40.3011 31.2309 40.3477C30.7947 40.3791 30.363 40.41 29.9314 40.4403C31.6486 40.8281 31.6486 40.8281 31.8853 41.2257C31.601 41.2513 31.3253 41.2764 31.0391 41.3025L31.0319 41.3032C30.8064 41.3238 30.5742 41.3449 30.3259 41.3674C30.6569 41.5405 31.0199 41.5515 31.3839 41.5626C31.9285 41.5791 32.4752 41.5956 32.9203 42.1551C32.7728 42.1886 32.6368 42.2252 32.508 42.2598L32.5078 42.2599L32.5077 42.2599C32.2515 42.3288 32.0241 42.39 31.7925 42.4039C30.906 42.4564 30.0196 42.4782 29.1332 42.4805L29.0507 42.4809C28.59 42.4836 28.1281 42.4864 27.8522 41.9613C27.7935 41.85 27.5983 41.8017 27.4143 41.7562C27.3513 41.7406 27.2895 41.7253 27.235 41.7079C26.9982 41.6355 26.7613 41.5717 26.5194 41.5065L26.5192 41.5065L26.519 41.5064L26.5189 41.5064C26.4244 41.4809 26.329 41.4552 26.2325 41.4287C26.1351 40.8208 26.3671 40.3229 26.7059 39.9328C27.2907 39.2642 27.5877 38.5332 27.5784 37.6602C27.5784 37.5526 27.6285 37.4448 27.6938 37.304C27.73 37.2261 27.7708 37.1382 27.8105 37.0346C27.977 37.1202 28.138 37.2008 28.2945 37.2791L28.2946 37.2791L28.2946 37.2791L28.2947 37.2792L28.2948 37.2792C28.6355 37.4497 28.9547 37.6095 29.2631 37.7873C29.704 38.042 30.1496 38.2381 30.6786 38.1928C31.5511 38.1192 32.0756 37.5753 31.8853 36.7496C31.7514 36.1694 31.5043 35.6121 31.2585 35.058L31.2585 35.058L31.2583 35.0576C31.1975 34.9204 31.1367 34.7834 31.0778 34.6462C30.9829 34.4203 30.8534 34.2082 30.7042 33.9635C30.6345 33.8493 30.5605 33.728 30.4837 33.5948C30.6406 33.5777 30.7982 33.5715 30.9512 33.5654H30.9512H30.9512H30.9512C31.5858 33.5402 32.1417 33.5182 32.2427 32.7392C32.5352 32.7938 32.6828 33.0421 32.8331 33.295C33.0476 33.656 33.2677 34.0263 33.9227 33.8555C33.8932 33.7817 33.8684 33.7137 33.8452 33.6504L33.8451 33.6499L33.845 33.6497C33.7992 33.5242 33.7601 33.4172 33.7046 33.3192C33.3194 32.6365 33.1569 31.9134 33.273 31.1375C33.5514 29.2549 32.9527 27.6631 31.695 26.234C31.1448 25.6106 30.6513 24.9409 30.1398 24.2468L30.1396 24.2466L30.1396 24.2466C29.9047 23.9278 29.666 23.6039 29.4163 23.277C29.5233 23.2218 29.6191 23.1708 29.7076 23.1237L29.7092 23.1229L29.7093 23.1228L29.7096 23.1227C29.8926 23.0253 30.0445 22.9444 30.2006 22.8769C30.3614 22.8082 30.5221 22.7392 30.6829 22.6703C31.4739 22.3309 32.2665 21.9909 33.0688 21.677C34.0434 21.2949 35.0412 21.0124 36.0808 21.4864C36.1551 21.5205 36.2618 21.524 36.3407 21.5027C37.7376 21.1192 38.9861 21.4128 40.1092 22.2835L40.1385 22.3061L40.1688 22.3297L40.1696 22.3303C40.4191 22.5243 40.6507 22.7044 41.0374 22.6255C41.1999 22.5923 41.4876 22.7616 41.5943 22.9191C41.896 23.3504 42.2023 23.7994 42.3787 24.287C42.8335 25.5804 43.0795 26.912 42.9031 28.2947C42.8433 28.7556 42.804 29.2187 42.7646 29.6818C42.7336 30.0458 42.7026 30.4097 42.6618 30.7726C42.5886 31.419 42.6067 32.0617 42.6248 32.7091C42.6389 33.212 42.6531 33.7178 42.6247 34.2304C43.1862 34.1951 43.3115 33.9018 43.2698 33.6012C43.1462 32.7056 43.5429 31.9902 43.9499 31.2561L43.9796 31.2024C44.006 31.1547 44.0325 31.1069 44.0587 31.0589C44.8059 29.697 45.0658 28.2021 45.0009 26.6777C44.9313 25.0187 44.7595 23.3632 44.1423 21.787C44.0838 21.6329 44.058 21.4659 44.0256 21.2564C44.0091 21.1498 43.991 21.0322 43.9659 20.8998C44.3372 21.1256 44.5785 21.2722 44.8756 21.4515C45.0087 21.3313 45.1356 21.216 45.2659 21.0975L45.465 20.9166C45.4942 20.9275 45.5262 20.9368 45.5589 20.9462C45.6301 20.9668 45.7048 20.9885 45.762 21.0301C46.4071 21.4914 46.8294 22.1142 47.0661 22.8533C47.5395 24.3428 47.8597 25.8524 47.5534 27.4213C47.4467 27.9634 47.4977 28.4713 47.8458 28.9703C48.115 28.9043 48.412 28.8321 48.7323 28.7546C49.1035 29.0591 49.0339 29.4356 48.904 29.8533C48.3843 31.5369 47.3806 32.9538 46.3728 34.3765L46.2911 34.4919C46.1787 34.6523 46.0121 34.6583 45.8474 34.6643C45.6516 34.6715 45.4587 34.6785 45.3629 34.9445C45.281 35.1773 45.1203 35.3836 44.9427 35.6112L44.9427 35.6113L44.9426 35.6114L44.9424 35.6116C44.8583 35.7196 44.7703 35.8324 44.6853 35.9551C44.7366 35.9635 44.7825 35.9674 44.823 35.9708C44.896 35.9769 44.9511 35.9815 44.9869 36.0087C45.6506 36.4894 46.1704 36.2153 46.6856 35.7381C46.9826 35.4584 47.3353 35.2242 48.0175 35.2332C47.8828 35.3397 47.7517 35.4464 47.6227 35.5514L47.6224 35.5517C46.6675 36.3291 45.8306 37.0105 44.5182 36.7709ZM20.5519 57.3855L20.5797 57.414C20.5003 57.398 20.4205 57.3825 20.3407 57.3669C19.3349 57.1706 18.3191 56.9724 17.6698 55.9033C18.8533 55.4951 19.9903 55.1034 21.1274 54.7116C21.1204 54.678 21.1146 54.6445 21.1088 54.6111C21.103 54.5776 21.0972 54.5441 21.0903 54.5105C21.0284 54.5105 20.966 54.5067 20.9039 54.5028C20.7705 54.4946 20.6383 54.4865 20.5148 54.5167C19.7696 54.699 19.0298 54.8932 18.2913 55.0871L18.2912 55.0872L18.291 55.0872C18.0637 55.1469 17.8366 55.2066 17.6095 55.2658C17.3424 55.3347 17.1867 55.3749 17.037 55.3589C16.8278 55.3364 16.6303 55.2041 16.1568 54.8868C18.5284 54.322 20.8025 53.7501 22.9095 52.6877C22.7457 52.7357 22.5818 52.7846 22.4177 52.8336C22.0055 52.9566 21.592 53.0801 21.1738 53.1899C20.37 53.4019 19.5643 53.6104 18.7585 53.8189L18.7585 53.8189L18.7584 53.8189L18.7581 53.819L18.7581 53.819C17.7402 54.0824 16.722 54.3459 15.7067 54.6168C15.0548 54.7911 14.5463 54.5205 13.8336 54.1413L13.7945 54.1206C14.2718 54.0155 14.7439 53.9241 15.2095 53.834C16.9308 53.5008 18.5616 53.1851 20.0228 52.261C19.9367 52.2676 19.8501 52.2719 19.7636 52.2762L19.7636 52.2762C19.5752 52.2856 19.3873 52.295 19.206 52.3277C18.8045 52.3987 18.4025 52.4672 18.0003 52.5357C16.8451 52.7324 15.6894 52.9291 14.5464 53.1871C13.1541 53.5022 12.1516 52.961 11.2698 52.0186C11.0853 51.8215 10.9145 51.6128 10.7319 51.3895L10.7318 51.3895C10.6343 51.2703 10.5334 51.1469 10.4252 51.019C10.7188 50.7825 11.0206 50.7939 11.3058 50.8046C11.3947 50.8079 11.4819 50.8112 11.5669 50.8069C15.6138 50.595 19.633 50.1251 23.5918 49.2602C25.0259 48.9474 26.4182 48.5006 27.7177 47.8153C27.7394 47.8038 27.7612 47.7917 27.7831 47.7796C27.9943 47.6624 28.2108 47.5424 28.4463 47.9337C28.1338 48.186 27.7632 48.336 27.3908 48.4868C26.9281 48.6742 26.4626 48.8627 26.1026 49.2497L26.6762 49.0759C27.3041 48.8857 27.925 48.6976 28.5159 48.5193C28.6711 48.878 28.8226 49.2257 28.9736 49.5725C29.1568 49.9932 29.3394 50.4126 29.5277 50.8487C29.0944 51.1645 28.6252 51.5042 28.1441 51.8524L28.1437 51.8527C27.8725 52.0491 27.5975 52.2481 27.3232 52.4471C27.8318 52.4522 28.2347 52.2524 28.6337 52.0544C28.7699 51.9868 28.9056 51.9195 29.045 51.8606C29.2094 51.7908 29.3508 51.6725 29.4951 51.5518C29.7909 51.3045 30.0988 51.0469 30.6415 51.1751C30.4883 51.3871 30.3464 51.5807 30.1986 51.7823L30.1983 51.7827L30.1983 51.7827L30.198 51.7832C30.0953 51.9233 29.9898 52.0672 29.8757 52.2238C30.4155 52.2847 30.6514 51.9805 30.8679 51.7012C30.9176 51.6371 30.9663 51.5743 31.0174 51.5175C31.3934 51.0979 31.7925 50.9303 32.3912 51.1483C31.8343 52.1339 31.0406 52.9057 30.2563 53.6683C28.3488 55.5242 26.2 57.0281 23.6289 57.9003C23.5837 57.9156 23.5387 57.9318 23.4937 57.9479C23.1135 58.0842 22.7353 58.2197 22.283 57.8621C22.7657 57.5889 23.1926 57.3459 23.6196 57.1026C23.6011 57.0654 23.5825 57.0281 23.5686 56.9909C23.3949 57.0467 23.2211 57.103 23.0474 57.1592L23.0472 57.1593L23.0471 57.1593L23.0471 57.1594C22.6454 57.2895 22.2438 57.4196 21.8421 57.5435C21.3919 57.6823 20.9371 57.7801 20.5519 57.3855ZM37.9606 43.4137L37.9669 43.3396C37.5994 43.298 37.3248 43.4201 37.2132 43.802C37.1746 43.9377 37.1441 44.0757 37.1135 44.2136C37.0706 44.4075 37.0277 44.6011 36.9626 44.7882C36.9462 44.8353 36.9302 44.8828 36.9141 44.9305C36.7762 45.3406 36.6341 45.7629 36.1643 46.0642C36.113 45.6319 36.2544 45.2829 36.3911 44.9453C36.4523 44.7941 36.5126 44.6453 36.5542 44.4922C36.5745 44.4163 36.5979 44.3403 36.6213 44.2644C36.7637 43.8022 36.9042 43.3461 36.3221 42.9714C36.2429 42.9203 36.2434 42.7358 36.2439 42.5762C36.244 42.5395 36.2441 42.5041 36.2432 42.472C36.2061 41.3938 35.6445 41.0578 34.6606 41.533C34.4889 41.6156 34.3218 41.7084 34.1548 41.8036C33.7232 42.0492 33.3194 41.9835 32.9991 41.643C32.7756 41.4058 32.5776 41.1471 32.356 40.8575L32.3559 40.8573C32.2509 40.7201 32.1407 40.576 32.0199 40.424C32.1921 40.3636 32.3279 40.3158 32.4487 40.2732L32.4497 40.2728C32.5728 40.2295 32.6803 40.1916 32.7949 40.1516C32.7751 40.0857 32.7552 40.0157 32.7348 39.944L32.7347 39.9437C32.7123 39.8647 32.6893 39.7836 32.665 39.7036C32.6849 39.6846 32.7027 39.6637 32.7201 39.6434C32.7554 39.6021 32.7885 39.5634 32.8321 39.5479C33.324 39.3631 33.7417 39.5643 34.1316 39.8248C34.5957 40.1353 35.083 40.2674 35.6585 40.208C35.8965 40.1834 36.1429 40.2344 36.4135 40.2904C36.5439 40.3173 36.68 40.3454 36.8234 40.3668C36.9513 39.9177 37.0792 39.4742 37.1937 39.0772L37.306 38.6875C37.7807 38.444 38.0362 38.655 38.301 38.8737C38.4789 39.0206 38.6609 39.1709 38.9165 39.1892C38.9306 39.1317 38.9519 39.0717 38.9733 39.0117C39.0223 38.8743 39.0713 38.7368 39.0325 38.6299C38.8801 38.2122 38.7005 37.8047 38.5207 37.3966L38.5206 37.3963C38.443 37.2204 38.3654 37.0443 38.2899 36.8672C37.8583 35.837 38.0068 35.5416 39.1068 35.2587C39.25 35.2215 39.4016 35.2116 39.5657 35.2008C39.6462 35.1955 39.7298 35.1901 39.8168 35.1811C39.9704 35.5937 39.9295 36.0241 39.8888 36.4528C39.8361 37.0089 39.7835 37.5624 40.1556 38.0714C40.2678 38.1167 40.3793 38.162 40.4906 38.2072L40.4914 38.2075C40.6514 38.2725 40.8111 38.3373 40.9725 38.402C40.9544 38.44 40.941 38.4737 40.9292 38.5034C40.9075 38.5578 40.8911 38.599 40.8611 38.6299C40.8147 38.6834 40.745 38.7352 40.6754 38.7544L40.6712 38.7555C39.4873 39.0844 39.4871 39.0844 39.3434 40.3028C39.4 40.3642 39.4575 40.4249 39.515 40.4856L39.5152 40.4858C39.6371 40.6144 39.7591 40.7432 39.8725 40.8794C39.9169 40.9326 39.9396 41.0034 39.9658 41.085C39.978 41.1228 39.9909 41.163 40.0071 41.2049L39.1903 41.2798C39.2709 41.3585 39.3391 41.4291 39.4002 41.4924C39.522 41.6186 39.6158 41.7157 39.724 41.79C40.0442 42.0085 40.4294 42.2386 40.7729 41.9194C41.0802 41.6342 40.8943 41.3594 40.7184 41.0995C40.6765 41.0375 40.6351 40.9763 40.6012 40.9161C40.536 40.8007 40.4557 40.6934 40.3755 40.5862C40.2956 40.4795 40.2158 40.3729 40.151 40.2583C39.9793 39.9565 40.1417 39.7621 40.4294 39.6181C41.0096 39.7357 41.2323 40.2225 41.3391 40.6765C41.534 41.5158 41.7336 42.3903 41.6825 43.236C41.6361 43.9568 41.599 44.5702 42.2951 45.0723C41.6872 45.5335 41.4644 46.0724 41.3669 46.7561C41.2463 47.6433 40.9632 48.5243 40.629 49.3632C40.3227 50.1364 39.8586 50.8459 39 51.2346C38.3874 50.8337 38.1182 50.1844 37.9047 49.5617C37.8159 49.2973 37.9011 48.9703 37.9834 48.6544C38.0087 48.5576 38.0336 48.4617 38.0532 48.3691C38.2064 47.6858 37.9094 47.359 37.2132 47.4752C36.4567 47.6014 36.2618 47.8679 36.0994 48.6514C36.0065 49.1167 35.7791 49.5675 35.5517 49.9924C35.264 50.5249 34.7535 50.7347 34.178 50.5476C33.1772 50.2251 32.184 50.3439 31.1881 50.463C31.0848 50.4754 30.9815 50.4877 30.8782 50.4996C30.7792 50.5108 30.6782 50.5157 30.5642 50.5213C30.507 50.5241 30.4467 50.527 30.3816 50.531C29.7736 49.6306 29.5601 48.7532 30.3909 47.8392C30.2937 47.6937 30.2032 47.5564 30.1165 47.4249L30.1162 47.4245L30.1159 47.4241C30.0414 47.311 29.9697 47.2023 29.8989 47.0962C30.1985 45.9193 31.1299 45.3786 32.0852 44.824C32.3877 44.6484 32.6926 44.4714 32.9806 44.2723C32.7786 44.0509 32.6245 43.8797 32.4738 43.7122L32.3123 43.5328C32.4076 43.4726 32.4978 43.4148 32.5868 43.3578L32.6836 43.2959C32.6139 43.0689 30.428 43.1888 29.1471 43.497C29.3648 43.7678 29.6557 43.7709 29.9459 43.774C30.1567 43.7762 30.3671 43.7785 30.5487 43.8834C29.3652 44.4776 27.9451 44.8298 26.7291 44.819C26.6859 43.9941 27.1679 43.466 27.6406 42.9482C27.7264 42.8541 27.812 42.7604 27.894 42.6653C30.493 43.1815 32.9527 42.9863 35.3893 41.7224C35.3971 41.8353 35.4106 41.9348 35.4227 42.0236L35.4227 42.0238C35.4467 42.1997 35.4649 42.334 35.4218 42.4482C35.3728 42.5908 35.264 42.7141 35.1553 42.8374L35.1553 42.8374C35.1096 42.8893 35.0639 42.9412 35.0226 42.9944C34.3636 43.8561 34.3822 43.9387 35.4496 44.4582C35.3936 44.6177 35.3362 44.7776 35.2785 44.938L35.2784 44.9384C35.1592 45.2699 35.0393 45.6038 34.9298 45.9412C34.9147 45.9902 34.8984 46.0399 34.882 46.0899C34.8031 46.331 34.7211 46.5813 34.7442 46.8151C34.772 47.082 34.9252 47.4434 35.134 47.5542C35.3137 47.6472 35.6034 47.5627 35.8581 47.4884C35.8995 47.4764 35.9398 47.4646 35.9787 47.4539C36.0687 47.4284 36.1454 47.3483 36.2225 47.2676C36.2568 47.2318 36.2911 47.1959 36.3268 47.1646C36.5739 46.9455 36.8194 46.7262 37.1017 46.474C37.2965 46.2999 37.509 46.1102 37.7516 45.894C37.8094 45.2023 37.8843 44.316 37.96 43.4214L37.9606 43.4137Z" fill="#AFC7E9"/>
<path d="M50.122 10.5011C50.6666 14.09 49.3076 19.7696 47.5771 21.5881C47.6992 21.2006 47.745 20.9875 47.8316 20.7862C48.6968 18.6749 49.3789 16.5162 49.725 14.2781C49.842 13.5129 49.8624 12.7345 49.9438 11.9631C49.9896 11.4747 50.0609 10.9881 50.122 10.5011Z" fill="#AFC7E9"/>
<path d="M52.9104 21.5881C53.6138 19.5203 54.2555 17.6331 54.9095 15.7185C54.9465 16.8911 53.8482 20.1969 52.9104 21.5881" fill="#AFC7E9"/>
<path d="M56.1388 17.0229C56.1665 17.2828 56.294 17.5629 56.2219 17.8C55.8008 19.1419 55.2522 20.4435 54.2437 21.5881C54.8699 20.0675 55.5016 18.5475 56.1333 17.027L56.1388 17.0229Z" fill="#AFC7E9"/>
<path d="M39.5771 52.0344C39.4858 52.4853 39.3946 52.9364 39.3069 53.3867C39.1981 53.6104 39.0893 53.8339 38.9104 54.1968C38.949 53.2443 39.1244 52.4919 39.3455 51.5881C39.4648 51.8136 39.5209 51.9246 39.5771 52.0344Z" fill="#AFC7E9"/>
<path d="M53.5771 35.2838C54.4673 34.8494 55.3535 34.4144 56.2438 33.9794C55.4836 34.829 54.5568 35.1521 53.5771 35.2838Z" fill="#AFC7E9"/>
<path d="M48.2437 24.8489C48.3019 24.7381 48.3455 24.6225 48.4134 24.5177C48.7673 23.9607 49.131 23.4068 49.577 22.8924C49.3249 23.6299 49.0486 24.3568 48.2437 24.8489Z" fill="#AFC7E9"/>
<path d="M44.3514 52.8924C45.0568 53.3987 44.9855 53.7389 44.729 54.1968C44.0307 53.8127 44.2659 53.4326 44.3514 52.8924Z" fill="#AFC7E9"/>
<path d="M52.9104 24.1968C52.954 23.6684 53.2372 23.2671 53.5771 22.8924C53.5161 23.4057 53.2459 23.8169 52.9104 24.1968Z" fill="#AFC7E9"/>
<path d="M51.5771 28.1964C51.3603 28.3846 51.1374 28.5736 50.9206 28.762C50.8604 28.4457 51.0712 28.2466 51.4325 28.1098C51.4807 28.1392 51.5289 28.1677 51.5771 28.1964Z" fill="#AFC7E9"/>
<path d="M27.716 2.67507C27.9058 2.92674 28.1188 3.16671 28.2855 3.43189C30.6886 7.23038 32.7537 11.1824 34.1058 15.4599C34.4114 16.4216 34.6383 17.4071 34.8605 18.3903C34.9485 18.7735 34.9253 19.1805 34.7494 19.6316C34.6475 19.4633 34.4808 19.306 34.4484 19.1256C33.7446 15.1857 32.1842 11.5367 30.3923 7.97459C29.6839 6.56676 28.8828 5.2035 28.1281 3.81772C27.9336 3.46791 27.7577 3.11088 27.5771 2.75701C27.6234 2.72955 27.6697 2.70253 27.716 2.67507Z" fill="#AFC7E9"/>
<path d="M4.9104 17.675C6.20693 18.2235 15.4323 25.7241 16.2437 26.8055C15.2328 26.3644 5.9848 18.9599 4.9104 17.675Z" fill="#AFC7E9"/>
<path d="M3.01965 33.9794C7.87212 35.6747 12.7246 37.3702 17.5771 39.0656C17.568 39.1095 17.5634 39.1533 17.5543 39.1968C17.3722 39.1834 17.1719 39.2052 17.0035 39.1507C12.5289 37.714 8.0451 36.3022 3.70701 34.493C3.43388 34.3786 3.17442 34.2301 2.9104 34.0981C2.94682 34.0582 2.98323 34.0187 3.01965 33.9794Z" fill="#AFC7E9"/>
<path d="M28.2438 33.3272C26.7081 32.768 21.1173 28.1812 19.5771 26.1533C20.2346 26.4033 20.6208 26.74 21.0024 27.0658C21.9495 27.8836 22.869 28.7353 23.8208 29.5537C25.2782 30.8142 26.7541 32.0593 28.2438 33.3272" fill="#AFC7E9"/>
<path d="M34.9104 11.8055C34.3005 10.1511 33.749 8.47313 33.0629 6.84917C32.3813 5.22522 31.5741 3.65576 30.9104 2.02287C32.8476 5.03311 34.5023 8.16308 34.9104 11.8055Z" fill="#AFC7E9"/>
<path d="M9.13262 12.4577C11.5045 14.7947 13.8764 17.1317 16.2437 19.4691C16.1984 19.5233 16.153 19.5773 16.1077 19.6316C15.958 19.5413 15.7766 19.4751 15.6542 19.3574C13.5136 17.2933 11.3775 15.2254 9.25054 13.1506C9.10541 13.0109 9.02378 12.8174 8.9104 12.649C8.9875 12.5849 9.06006 12.5213 9.13262 12.4577Z" fill="#AFC7E9"/>
<path d="M15.0062 5.93592C15.2983 6.18667 15.6287 6.40572 15.8729 6.69329C17.7931 8.93321 19.3302 11.4258 20.8529 13.9267C20.9008 14.0073 20.8769 14.1294 20.9104 14.4142C20.671 14.1001 20.5369 13.9299 20.4076 13.7542C18.6263 11.2827 16.8402 8.81064 15.0636 6.33721C14.9966 6.24399 14.9583 6.13121 14.9104 6.02774C14.9391 5.99698 14.9727 5.96668 15.0062 5.93592Z" fill="#AFC7E9"/>
<path d="M18.0597 20.2838C16.1225 18.1654 14.1808 16.0473 12.2437 13.9296C12.2805 13.8736 12.3219 13.818 12.3587 13.762C12.5474 13.8713 12.7729 13.9437 12.9155 14.0958C14.121 15.4067 15.3173 16.7253 16.4998 18.0544C17.098 18.7246 17.664 19.4222 18.2437 20.107C18.1793 20.1662 18.1195 20.2249 18.0597 20.2838" fill="#AFC7E9"/>
<path d="M26.2437 46.3707C25.1474 46.9924 21.7491 47.1964 18.9104 46.8662C21.2669 46.5196 23.6552 46.618 26.2437 46.3707Z" fill="#AFC7E9"/>
<path d="M23.577 15.0663C22.0794 13.288 20.3376 10.2273 20.2437 9.19678C21.2249 10.2766 23.4362 14.1729 23.577 15.0663Z" fill="#AFC7E9"/>
<path d="M10.1273 31.3707C7.60529 30.2504 5.25784 28.8736 2.9104 27.4576C3.09955 27.5001 3.31296 27.5105 3.47786 27.591C4.41878 28.0549 5.35969 28.5194 6.28121 29.0133C7.61499 29.7263 8.92451 30.4647 10.2437 31.1918C10.2049 31.251 10.1661 31.3106 10.1273 31.3707Z" fill="#AFC7E9"/>
<path d="M23.5771 4.63158C25.0484 6.58596 26.229 8.71806 26.9104 11.1533C25.7993 8.97941 24.6882 6.80549 23.5771 4.63158Z" fill="#AFC7E9"/>
<path d="M24.2437 12.4576C22.8941 10.6154 21.8326 8.63512 20.9104 6.58808C22.2216 8.44903 23.2351 10.4524 24.2437 12.4576Z" fill="#AFC7E9"/>
<path d="M28.9104 20.2838C28.2305 19.5525 26.3982 15.4502 26.2437 14.4142C27.1532 16.3544 28.2614 18.1945 28.9104 20.2838Z" fill="#AFC7E9"/>
<path d="M18.9104 15.7185C17.6123 14.6788 15.3683 12.0937 14.9104 11.1533C16.6412 12.6202 17.8639 14.0999 18.9104 15.7185Z" fill="#AFC7E9"/>
<path d="M22.2437 3.97937C23.3129 5.84096 24.2144 7.78748 24.9104 9.84894C23.8328 7.99474 23.0571 5.97205 22.2437 3.97937Z" fill="#AFC7E9"/>
<path d="M26.2361 39.1657C24.5173 38.8043 23.0299 38.0744 21.5771 37.2403C21.8086 37.2916 22.0548 37.321 22.2764 37.3974C23.4338 37.8 24.5862 38.21 25.7337 38.6279C26.0243 38.7337 26.3641 38.8415 26.2016 39.1968L26.2361 39.1657Z" fill="#AFC7E9"/>
<path d="M18.3069 37.8924C20.2859 38.5443 22.2648 39.1966 24.2437 39.8489C22.1286 39.7065 20.1594 39.0406 18.2437 38.1717C18.268 38.0784 18.2875 37.9851 18.3069 37.8924Z" fill="#AFC7E9"/>
<path d="M24.9104 37.2402C23.2306 36.6049 21.6474 35.8103 20.2437 34.6315C21.9189 35.2565 23.4515 36.1902 24.9104 37.2402Z" fill="#AFC7E9"/>
<path d="M3.57709 23.5446C4.38347 23.7026 5.88688 24.6857 7.57709 26.1533C6.51558 25.9095 4.2149 24.4069 3.57709 23.5446Z" fill="#AFC7E9"/>
<path d="M26.2438 29.4142C25.2026 28.7678 24.5396 27.8192 23.5771 26.8055C24.6035 27.263 25.6397 28.2557 26.2438 29.4142Z" fill="#AFC7E9"/>
<path d="M6.95889 44.4142C7.83161 44.6014 8.70434 44.7896 9.57707 44.977C8.59525 45.2156 7.74676 44.937 6.9104 44.6033C6.92656 44.5401 6.94272 44.4774 6.95889 44.4142Z" fill="#AFC7E9"/>
<path d="M36.2437 15.7185C36.7041 16.7588 36.9056 17.8492 36.9104 18.9794C36.3109 17.9669 36.3876 16.8208 36.2437 15.7185Z" fill="#AFC7E9"/>
<path d="M27.3167 20.2838C26.735 19.4147 26.1588 18.5451 25.5771 17.6751C26.4635 18.4341 27.0452 19.3132 27.5771 20.2108C27.4884 20.2348 27.4053 20.2594 27.3167 20.2838Z" fill="#AFC7E9"/>
<path d="M15.5391 42.4576C14.4042 42.1529 13.2456 41.9624 12.2437 41.1533C13.3548 41.5018 14.4659 41.8493 15.577 42.1978C15.5628 42.284 15.5533 42.3708 15.5391 42.4576Z" fill="#AFC7E9"/>
<path d="M14.97 24.1968C15.839 24.792 16.708 25.3877 17.5771 25.9829C17.5224 26.0395 17.4728 26.0964 17.4231 26.1533C16.425 25.7004 15.5758 25.0763 14.9104 24.2515L14.97 24.1968Z" fill="#AFC7E9"/>
<path d="M27.5771 5.28376C28.1199 6.07519 28.6771 6.86138 28.9104 7.89246C28.3009 7.21702 27.7676 6.19481 27.5771 5.28376Z" fill="#AFC7E9"/>
<path d="M7.38585 20.9359C6.56415 20.501 5.73727 20.0665 4.9104 19.6316C6.02668 19.7017 6.73986 20.2885 7.57707 20.7169C7.51505 20.7897 7.45304 20.8631 7.38585 20.9359" fill="#AFC7E9"/>
<path d="M14.2437 30.0663C14.9131 30.501 15.5784 30.936 16.2437 31.3707C15.4388 31.28 14.8063 30.7623 14.2437 30.0663Z" fill="#AFC7E9"/>
<path d="M19.577 6.56552C18.9822 6.14856 18.7401 5.38429 18.2437 4.63155C18.9863 5.18283 19.2283 5.5612 19.5565 6.58807L19.577 6.56552Z" fill="#AFC7E9"/>
<path d="M12.2437 49.0668C11.5743 49.0668 10.909 49.0668 10.2437 49.0668C10.2437 49.0267 10.2437 48.9869 10.2437 48.9468C10.9132 48.9468 11.5784 48.9468 12.2437 48.9468C12.2437 48.9869 12.2437 49.0267 12.2437 49.0668Z" fill="#AFC7E9"/>
<path d="M12.9104 7.89243C13.2519 8.09372 13.426 8.50787 13.5771 9.19678C13.1501 8.85106 12.9991 8.42031 12.9104 7.89243Z" fill="#AFC7E9"/>
<path d="M29.577 32.6299C28.8 32.8885 28.5962 31.9786 28.2437 31.3707C28.8509 31.4548 29.0845 32.2993 29.5728 32.6269L29.577 32.6299Z" fill="#AFC7E9"/>
<path d="M10.2234 47.7625C9.56351 47.7625 8.90361 47.7625 8.24371 47.7625C8.24371 47.7228 8.24371 47.6821 8.24371 47.6425C8.90869 47.6425 9.57366 47.6425 10.2437 47.6425C10.2386 47.6821 10.2336 47.7228 10.2234 47.7625Z" fill="#AFC7E9"/>
<path d="M5.66775 41.1533C6.30242 41.3012 6.94242 41.4501 7.57709 41.5985C7.55575 41.6675 7.52909 41.7365 7.50242 41.8055C6.86242 41.662 6.21709 41.5183 5.57709 41.3744C5.60375 41.3004 5.63575 41.2273 5.66775 41.1533Z" fill="#AFC7E9"/>
<path d="M25.5771 34.6635C26.0235 34.8699 26.464 35.0771 26.9104 35.2838C26.37 35.2662 25.8297 35.2226 25.6006 34.6316L25.5771 34.6635" fill="#AFC7E9"/>
<path d="M25.577 34.611C25.0092 34.6247 24.6138 34.3627 24.2437 34.0656C24.2741 34.0365 24.3096 34.008 24.3451 33.9794C24.7456 34.1968 25.1512 34.4142 25.5568 34.6316L25.577 34.611Z" fill="#AFC7E9"/>
<path d="M14.8683 24.1968C14.6613 23.9799 14.4507 23.7642 14.2437 23.5473C14.5876 23.5158 14.7806 23.7646 14.9104 24.1333L14.8683 24.1968Z" fill="#AFC7E9"/>
<path d="M19.5771 6.61401C20.172 6.85289 20.2712 7.3462 20.2381 7.89246C20.0266 7.45787 19.8217 7.0227 19.6101 6.58811L19.5771 6.61401Z" fill="#AFC7E9"/>
<path d="M19.1151 21.5881C19.2516 21.7799 19.3881 21.9716 19.5771 22.2402C19.4301 22.1489 19.3251 22.0999 19.2411 22.031C19.1204 21.9338 19.0206 21.821 18.9104 21.7149C18.9786 21.6726 19.0469 21.6301 19.1151 21.5881Z" fill="#AFC7E9"/>
<path d="M10.8395 26.8055C10.6382 26.6308 10.441 26.461 10.2437 26.2908C10.2684 26.2451 10.293 26.1994 10.3177 26.1533C10.5149 26.3112 10.7163 26.4677 10.9094 26.6323C10.9176 26.6384 10.8724 26.7231 10.8395 26.8055Z" fill="#AFC7E9"/>
<path d="M31.2181 18.3272C31.1155 18.1213 31.013 17.9155 30.9104 17.7096C30.9873 17.6984 31.0642 17.6863 31.1412 17.675C31.2865 17.8821 31.4318 18.0893 31.5771 18.2964C31.4574 18.3068 31.3378 18.3168 31.2181 18.3272" fill="#AFC7E9"/>
<path d="M44.0617 35.2364C43.7116 35.1445 43.4958 34.9553 43.6061 34.5774C43.6684 34.3564 43.7595 34.1383 43.8699 33.936C45.2271 31.4711 45.8314 28.8177 45.9897 26.0526C45.9993 25.867 46.0233 25.6817 46.1 25.5011C46.4309 27.3153 46.1528 29.092 45.6492 30.8283C45.3326 31.9365 44.8291 32.9938 44.4214 34.0785C44.2727 34.4739 44.1576 34.8818 44.0281 35.2838L44.0617 35.2364Z" fill="#AFC7E9"/>
<path d="M38.8791 33.9794C38.5946 30.1162 37.6792 26.4365 36.2437 22.8924C37.7636 24.8939 39.1368 31.3324 38.8791 33.9794Z" fill="#AFC7E9"/>
<path d="M34.2437 24.849C35.8621 26.687 37.6114 30.5663 37.5765 32.0229C36.4772 29.6541 35.3605 27.2516 34.2437 24.849Z" fill="#AFC7E9"/>
<path d="M40.3791 29.441C40.4746 29.4927 40.6259 29.5364 40.6498 29.5975C41.1195 30.7895 40.9364 33.1662 40.2437 34.6316C40.3074 32.8224 40.3631 31.1182 40.4268 29.4142L40.3791 29.441Z" fill="#AFC7E9"/>
<path d="M43.8365 35.9359C43.7615 35.7013 43.6924 35.4672 43.6174 35.2326L43.5771 35.2761C44.2111 34.4503 44.8451 33.6246 45.5771 32.675C45.4906 33.4638 45.0584 34.0241 44.6837 34.597C44.3898 35.038 44.1016 35.4809 43.8134 35.9232L43.8365 35.9359Z" fill="#AFC7E9"/>
<path d="M39.5771 25.5011C39.3534 24.849 39.1341 24.1967 38.9104 23.5446C39.4762 24.0712 39.5332 24.7851 39.5771 25.5011Z" fill="#AFC7E9"/>
<path d="M36.2429 26.1533C36.021 25.5008 35.799 24.8486 35.5771 24.1968C36.1254 24.6344 36.2559 25.3321 36.2429 26.1533Z" fill="#AFC7E9"/>
<path d="M40.3304 28.7445C40.2914 28.6814 40.224 28.6205 40.217 28.5547C40.1992 28.4098 40.2134 28.2625 40.3091 28.1098C40.3091 28.327 40.3091 28.5445 40.3091 28.762L40.3304 28.7445Z" fill="#AFC7E9"/>
<path d="M26.2437 53.5446C24.2336 55.4209 21.7814 56.375 18.9104 56.8055C19.3106 56.3114 19.7805 56.2729 20.1761 56.136C22.2607 55.4165 24.308 54.6209 26.2437 53.5446Z" fill="#AFC7E9"/>
<path d="M20.2725 57.4576C20.4405 57.3149 20.5797 57.1003 20.7716 57.0406C23.1185 56.3148 25.3118 55.2948 27.4715 54.1996C27.4955 54.1881 27.5435 54.2152 27.577 54.2241C26.3004 55.4635 22.7873 57.0001 20.2437 57.4296L20.2725 57.4576" fill="#AFC7E9"/>
<path d="M19.5771 50.9359C16.989 51.8368 14.3255 52.0582 11.5771 52.2402C11.7939 51.6351 12.1852 51.756 12.5058 51.725C14.3726 51.5432 16.2347 51.3759 18.0968 51.1854C18.5918 51.1345 19.0821 51.0208 19.5771 50.9359Z" fill="#AFC7E9"/>
<path d="M21.5771 51.5859C23.3549 50.9344 25.1326 50.2831 26.9104 49.6316C25.3633 50.8954 23.6047 51.633 21.5771 51.5859Z" fill="#AFC7E9"/>
<path d="M23.577 53.5446C23.4126 54.0159 23.1189 54.2973 22.2437 54.1634C22.8605 53.8777 23.2188 53.7106 23.577 53.5446Z" fill="#AFC7E9"/>
<path d="M37.6249 43.5677C37.3672 43.5182 37.1048 43.4812 36.8471 43.4172C36.4032 43.3044 36.1694 42.9943 36.2648 42.5965C36.4271 41.9439 36.8709 41.4793 37.4961 41.1772C37.6011 41.125 37.8683 41.1643 37.9113 41.2382C37.9924 41.371 38.0354 41.6138 37.9542 41.7192C37.7108 42.0413 37.4006 42.3203 37.1573 42.5707C37.749 42.8058 38.2931 43.0211 39.0423 43.319C39.0566 43.3121 39.2809 43.1793 39.5195 43.0802C40.2067 42.7969 40.6792 43.0117 40.8653 43.6817C40.8939 43.7882 40.9083 43.9013 40.9083 44.0115C40.913 44.3438 40.9083 44.676 40.9083 45.0663C40.3165 44.9553 40.5026 44.3719 40.0588 44.0986C40.0063 44.128 39.887 44.1868 39.7772 44.2533C38.8037 44.8245 38.4362 44.7594 37.8254 43.8995C37.7395 43.7788 37.6631 43.6528 37.582 43.5294L37.6249 43.5677Z" fill="#AFC7E9"/>
<path d="M32.9104 45.7185C33.1843 45.1854 33.5388 44.7614 34.1619 44.4142C34.4251 45.2262 34.0652 45.6011 32.9104 45.7185Z" fill="#AFC7E9"/>
<path d="M44.9104 11.158C45.1266 11.2448 45.5196 11.3227 45.5392 11.4204C45.6178 11.7592 45.5687 12.1047 45.441 12.4576C45.2641 12.0225 45.0873 11.5884 44.9104 11.1533V11.158Z" fill="#AFC7E9"/>
<path d="M44.9232 11.1483C44.9078 10.7152 44.8925 10.2821 44.8771 9.84897C44.9171 9.85148 44.9571 9.854 44.9971 9.85651C44.9725 10.2886 44.9478 10.7207 44.9232 11.1533V11.1483Z" fill="#AFC7E9"/>
<path d="M33.5771 55.5011C34.2455 54.1969 34.9087 52.8922 35.5771 51.5881C35.3424 53.0662 34.6026 54.3656 33.5771 55.5011Z" fill="#AFC7E9"/>
<path d="M34.8731 51.5881C35.0003 52.1928 34.8019 52.5482 34.283 52.8925C34.1202 52.2719 34.4916 51.9871 34.8731 51.5881Z" fill="#AFC7E9"/>
<path d="M32.2437 52.8925C32.4401 52.6967 32.6425 52.501 32.9104 52.2403C32.8509 52.6131 32.8509 52.6131 32.2437 52.8925Z" fill="#AFC7E9"/>
<path d="M31.5771 54.0763C31.6801 53.934 31.7722 53.783 31.886 53.6525C31.9511 53.5728 32.0541 53.5242 32.2438 53.5529C32.157 53.6806 32.0757 53.8172 31.9782 53.9328C31.8915 54.033 31.7776 54.1099 31.6746 54.1968C31.6421 54.1564 31.6096 54.1164 31.5771 54.0763" fill="#AFC7E9"/>
</svg>
