<svg width="18" height="18" viewBox="0 0 18 18" fill="none" xmlns="http://www.w3.org/2000/svg">
<path fill-rule="evenodd" clip-rule="evenodd" d="M0 9C0 4.02529 4.02608 0 9 0C14.0031 0 18 3.47712 18 8.41935C18 11.3853 16.1524 13.462 12.2459 13.462C11.2109 13.462 10.5335 12.9385 10.5774 11.9301C9.99563 12.7541 8.87527 13.6351 7.43349 13.6351C5.37191 13.6351 4.14113 12.3008 4.14113 10.0658C4.14113 6.65173 6.50479 4.36725 8.97412 4.36725C10.2347 4.36725 11.2113 4.9459 11.6369 5.92857C11.6678 5.55257 11.6873 5.45387 11.7436 5.16835C11.7535 5.11813 11.7646 5.06213 11.777 4.99783C11.8167 4.79306 11.996 4.64516 12.2046 4.64516H12.6553C12.9294 4.64516 13.1353 4.89524 13.0827 5.16419L11.9189 11.1184C11.7668 11.9549 11.9105 12.3475 12.6267 12.3475C14.9219 12.3475 16.8387 11.0639 16.8387 8.41935C16.8387 4.06539 13.2984 1.16129 9 1.16129C4.66719 1.16129 1.16129 4.66784 1.16129 9C1.16129 13.3328 4.66792 16.8387 9 16.8387C10.6684 16.8387 12.2999 16.3019 13.6381 15.3197C13.8237 15.1835 14.0841 15.2188 14.2299 15.397L14.414 15.6219C14.5711 15.8138 14.5376 16.0994 14.338 16.2465C12.7989 17.3802 10.9207 18 9 18C4.02529 18 0 13.9739 0 9ZM5.49798 9.99657C5.49798 11.5229 6.29271 12.434 7.62387 12.434C9.74214 12.434 11.1346 10.0809 11.1346 7.97121C11.1346 6.59417 10.4362 5.58566 9.02602 5.58566C7.34026 5.58566 5.49798 7.28604 5.49798 9.99657Z" fill="#2C5B9B"/>
</svg>
