<svg width="61" height="60" viewBox="0 0 61 60" fill="none" xmlns="http://www.w3.org/2000/svg">
<path fill-rule="evenodd" clip-rule="evenodd" d="M57.9609 20.3001C58.6331 19.459 58.9237 18.6881 58.2183 17.7277C59.2062 16.928 59.6831 15.9899 59.53 14.7623C59.5001 14.5226 59.5902 14.2724 59.6815 14.0189C59.7412 13.853 59.8014 13.6856 59.8289 13.519C60.1277 11.7015 60.3014 9.9059 58.5085 8.61687C58.6048 8.53881 58.7023 8.46743 58.7971 8.39809C59.0079 8.24388 59.2049 8.09974 59.3433 7.91457C59.5074 7.69508 59.6835 7.27705 59.5786 7.11301C59.2147 6.54401 59.3588 6.03139 59.5093 5.49617C59.5418 5.38044 59.5746 5.26364 59.6027 5.14499C59.8173 4.23344 59.3794 3.42396 58.7486 2.82558C58.1216 2.2314 57.32 2.5427 56.6328 2.86799C56.3203 3.01595 56.0314 3.21016 55.736 3.40868C55.6007 3.49965 55.464 3.59153 55.323 3.68027C55.2531 3.58764 55.1868 3.49869 55.1225 3.41247C54.9953 3.24187 54.8761 3.08195 54.7524 2.92531C53.5398 1.39069 52.0587 0.332348 49.9607 0.271763C49.5392 0.259583 49.1192 0.202431 48.6992 0.145279C48.2836 0.0887184 47.868 0.0321579 47.4509 0.0191765C43.8506 -0.0940666 40.3606 0.24147 37.3527 2.46301C36.8629 2.82465 36.3191 3.13782 35.7595 3.38761C33.4234 4.43011 31.0771 5.45256 28.7203 6.45126C28.2011 6.67122 27.6323 6.80124 27.0732 6.90749C26.6787 6.98243 26.2738 7.02959 25.8696 7.07667C25.115 7.16456 24.3625 7.2522 23.6842 7.51985C21.8331 8.24993 20.0474 9.14091 18.2662 10.0297C18.0781 10.1235 17.8901 10.2173 17.7021 10.3109C16.8707 10.7242 16.0719 11.1995 15.2737 11.6745C15.0134 11.8294 14.7533 11.9842 14.4921 12.1368L14.4707 12.1493C13.9855 12.4332 13.4967 12.7191 13.0505 13.0548C11.964 13.8704 10.8875 14.6999 9.83375 15.5546C7.91912 17.1069 6.10602 18.7604 5.01998 20.9917C4.98005 21.0737 4.94088 21.1559 4.90184 21.2377C4.51798 22.0424 4.14768 22.8186 3.20688 23.2002C2.98409 23.2906 2.80364 23.5409 2.6641 23.7543C1.27444 25.884 0.185999 28.113 0.192254 30.7144C0.192397 30.7652 0.192551 30.8161 0.192704 30.867C0.196165 32.0153 0.199642 33.1691 0.0839879 34.3093C-0.0748031 35.8733 0.0503049 37.3902 0.48289 38.8997C0.610885 39.3466 0.698461 39.8336 0.656598 40.2898C0.594044 40.9767 0.816832 41.5308 1.15029 42.1138C1.53139 42.7807 1.8918 43.4891 2.07513 44.2231C2.23921 44.8811 2.50531 45.4091 2.96821 45.9035C3.24585 46.2004 3.56777 46.6291 3.54852 46.9819C3.49848 47.8893 3.94405 48.4667 4.63744 48.9085C5.11478 49.2123 5.40734 49.5483 5.49684 50.1187C5.60222 50.7898 6.02181 51.3784 6.68248 51.5718C7.48095 51.8055 7.68381 52.3552 7.91874 52.9918C7.92605 53.0116 7.93338 53.0315 7.94077 53.0514C8.65245 54.9743 10.031 56.1538 12.1333 56.6039C13.0206 56.7936 13.9753 57.1059 14.6725 57.6404C16.7732 59.2511 19.2263 59.5152 21.6823 59.7797C22.2783 59.8439 22.8744 59.908 23.4657 59.9915C23.6017 60.0107 23.7428 59.9938 23.8843 59.9768C23.9661 59.9669 24.048 59.9571 24.1293 59.9542C24.4447 59.9427 24.7604 59.935 25.076 59.9273C25.7321 59.9112 26.3881 59.8952 27.0414 59.8452C27.9701 59.7739 28.8949 59.6466 29.6364 58.9965C30.3409 58.379 31.1512 58.0034 32.1049 57.8212C32.8032 57.6873 33.4757 57.3772 34.1287 57.0761C34.1507 57.066 34.1727 57.0559 34.1947 57.0457C34.6464 56.8374 35.0893 56.6092 35.5319 56.381C36.2499 56.0111 36.9671 55.6415 37.7199 55.3578C38.4455 55.0838 39.0749 54.799 39.5984 54.2295C39.7917 54.0198 40.032 53.852 40.2729 53.6839C40.4655 53.5494 40.6586 53.4146 40.8283 53.2579C41.1783 52.9343 41.5119 52.5939 41.8456 52.2535C42.0862 52.008 42.3268 51.7625 42.5736 51.5233C42.8743 51.2316 43.1919 50.9515 43.5297 50.7013C43.7257 50.5558 43.9339 50.4232 44.1418 50.2909C44.4825 50.0739 44.8225 49.8575 45.107 49.5851C45.9859 48.7434 46.563 47.7099 47.1415 46.6739C47.3611 46.2806 47.5809 45.8869 47.8175 45.5032C49.3467 43.0226 50.7032 40.4762 51.8725 37.8245C52.0553 37.4098 52.2983 37.0208 52.5415 36.6314C52.7348 36.322 52.9282 36.0123 53.0918 35.6892C53.1931 35.489 53.3014 35.2888 53.4101 35.0879C53.7778 34.4085 54.1498 33.7211 54.2664 33.0007C54.2934 32.833 54.3188 32.665 54.3442 32.4972C54.5055 31.4303 54.6655 30.3714 55.2485 29.4468C56.1074 28.0832 56.4702 26.6245 56.5145 25.0601C56.5153 25.0306 56.5143 25.0008 56.5133 24.9709C56.5114 24.914 56.5095 24.8571 56.5202 24.8024C56.5783 24.5101 56.6287 24.2145 56.6792 23.9186C56.897 22.6412 57.1159 21.3573 57.9609 20.3001ZM58.8322 6.7575C58.811 7.00858 58.7889 7.27201 58.7611 7.55294C58.4314 7.74893 57.9571 8.03149 57.4192 8.35189L57.2309 8.46402C57.2999 8.56583 57.3564 8.66341 57.4085 8.75335C57.5089 8.92686 57.5929 9.07191 57.7184 9.16399C59.2173 10.2638 59.0931 11.7956 58.7621 13.2715C58.4717 14.5657 57.9724 15.8235 57.4788 17.067L57.4335 17.181C56.271 20.11 55.2773 23.0828 54.4603 26.124C53.8814 28.2799 53.0653 30.3835 52.2386 32.4671C50.9034 35.8332 49.5575 39.2007 48.0552 42.4988C46.8229 45.2036 44.8842 47.4638 42.6116 49.4328C41.7655 50.1656 40.8943 50.8714 40.0232 51.5772C39.6003 51.9199 39.1773 52.2625 38.7573 52.6082C34.9728 55.7232 30.5218 57.3524 25.6464 57.7676C22.0207 58.0766 18.6077 57.1958 15.5512 55.1663C15.0745 54.8496 14.5769 54.5609 14.0793 54.2721C12.9776 53.6329 11.876 52.9937 11.0026 52.0518C7.43024 48.1997 4.06435 44.2217 2.59 39.0837C2.19158 37.694 2.14442 36.2992 2.15068 34.8732C2.15387 34.0655 2.10239 33.2576 2.0509 32.4497C2.00165 31.677 1.9524 30.9042 1.95098 30.1314C1.94858 29.1569 2.00921 28.1415 2.29648 27.2192C2.53793 26.4455 2.94142 25.7176 3.34346 24.9923C3.46861 24.7666 3.59362 24.541 3.71356 24.3145C3.82905 24.0964 4.04318 23.8349 4.26356 23.7771C5.04224 23.5733 5.33616 22.9787 5.63036 22.3835C5.65631 22.331 5.68227 22.2785 5.70856 22.2262C7.32197 19.0148 9.9348 16.736 13.0298 14.9334C16.3062 13.025 19.713 11.3524 23.3449 10.1743C28.1125 8.62759 32.641 6.5603 37.1776 4.48742C39.417 3.4645 41.7517 2.60934 44.1042 1.85625C46.0963 1.21873 48.1981 1.13484 50.2966 1.37857C52.281 1.60925 53.4305 2.7855 54.1182 4.50607C54.2255 4.77496 54.3554 5.07415 54.5685 5.25776C55.2461 5.84076 55.8249 5.69676 56.2681 4.91803C56.2971 4.86724 56.326 4.81459 56.3553 4.76124C56.5151 4.47005 56.6862 4.15825 56.9437 4.01487C57.3296 3.79957 57.9599 3.57448 58.2645 3.73759C58.777 4.01208 59.1157 4.56898 58.9978 5.26569C58.9178 5.74009 58.8774 6.22056 58.8322 6.7575Z" fill="#AFC7E9"/>
<path d="M39.1583 28.3423C39.1366 27.1099 39.7544 26.2164 40.2733 25.2856C40.4241 25.0146 40.6284 24.7078 40.6144 24.4261C40.559 23.3184 40.4265 22.2144 40.3094 20.9694C40.9209 21.3056 41.1199 21.773 41.1975 22.3071C41.2962 22.9873 41.3492 23.6737 41.461 24.3516C41.5584 24.9397 41.7882 25.5151 41.8195 26.1037C41.8807 27.2472 41.8605 28.3964 41.8369 29.5422C41.8301 29.8789 41.6494 30.2104 41.6326 30.5479C41.5179 32.8997 40.4974 34.9172 39.1954 36.8365C38.4905 37.8762 37.7494 38.8959 37.1047 39.9691C35.5706 42.5225 33.2428 44.175 30.5903 45.4862C29.4074 46.071 28.1339 46.2605 26.8397 46.219C23.039 46.0989 19.6719 44.9209 17.1495 42.0644C15.8288 40.5688 15.1807 38.7767 15.3643 36.6405C15.9704 36.7978 16.0143 37.1945 16.142 37.5307C16.7867 39.2358 17.5605 40.8617 18.993 42.1151C20.2993 43.2582 21.8035 44.0614 23.4587 44.6099C23.7347 44.7011 24.1559 44.9954 24.2368 44.3687C24.2412 44.338 24.3852 44.3072 24.4652 44.3044C25.8312 44.2514 27.1972 44.2025 28.5632 44.1573C28.582 44.1564 28.6027 44.2118 28.6741 44.3179C28.0881 44.838 27.2435 44.7947 26.5872 45.1439C29.4392 45.1169 31.9592 44.338 33.8581 42.0956C32.6685 42.4443 31.4783 42.7926 30.2887 43.1413C30.2381 43.0668 30.1875 42.9923 30.1369 42.9178C33.6456 41.528 36.3863 39.2833 38.3031 36.173C40.1027 33.2513 41.3497 27.8097 40.6689 25.9072C40.1244 26.6992 40.096 27.7305 39.1583 28.3423Z" fill="#AFC7E9"/>
<path d="M15.1211 36.2755C14.869 35.906 14.556 35.5631 14.3752 35.1638C12.7431 31.5551 13.2581 28.167 15.8164 25.1725C18.624 21.8858 22.2314 19.6583 26.4373 18.3409C28.6831 17.6373 30.9396 17.0216 33.3306 16.9905C35.2944 16.9653 37.8966 17.6452 39.8074 19.8183C39.5186 19.7467 39.3392 19.7513 39.2346 19.6685C36.1396 17.225 32.6638 17.1547 29.0096 18.1022C24.8524 19.1799 21.2117 21.1027 18.0541 23.9608C15.1158 26.6207 14.2494 29.8403 14.8207 33.5496C14.9562 34.4258 15.1631 35.2913 15.3371 36.1615C15.2648 36.1997 15.193 36.2374 15.1211 36.2755" fill="#AFC7E9"/>
<path d="M31.3041 37.1938C31.4084 36.9847 31.4685 36.7371 31.6238 36.5744C32.4318 35.7277 33.3628 34.9719 34.0588 34.0497C34.7235 33.1692 35.2344 32.1556 35.667 31.1425C36.3404 29.5669 36.8845 27.9408 37.4988 26.3416C37.5796 26.1316 37.7511 25.9544 37.9126 25.7143C37.7728 26.8846 37.6574 27.9737 37.5094 29.0583C37.2388 31.0442 36.2626 32.7092 34.8249 34.0993C33.7045 35.1824 32.4668 36.152 31.2811 37.1721L31.3041 37.1938" fill="#AFC7E9"/>
<path d="M29.0705 54.0507C28.6104 54.3189 28.1806 54.6652 27.6849 54.8434C25.1443 55.7559 22.6411 55.9474 20.1725 54.532C19.004 53.862 17.7222 53.3724 16.4994 52.7869C16.0297 52.5619 15.5811 52.2969 15.1758 51.8877C15.4174 51.958 15.6729 51.9998 15.8976 52.1022C17.6501 52.899 19.3887 53.7242 21.1484 54.5068C22.3947 55.0615 23.7453 55.0477 25.0535 54.8774C26.1346 54.7368 27.1826 54.363 28.2435 54.0856C28.4879 54.0213 28.7238 53.9281 28.9634 53.8487C28.999 53.9157 29.0345 53.9832 29.0705 54.0507Z" fill="#AFC7E9"/>
<path d="M8.12073 43.3163C8.57647 44.4664 8.84049 45.5033 9.37519 46.3812C9.92655 47.2876 10.6653 48.1201 11.4607 48.8357C12.2523 49.5489 13.2166 50.077 14.0705 50.6625C11.0816 50.7257 7.61077 46.6342 8.12073 43.3163Z" fill="#AFC7E9"/>
<path d="M28.5968 9.7959C32.6266 7.97274 36.5325 6.20598 40.4389 4.43876C35.3462 7.46372 32.8159 8.6049 28.5968 9.7959Z" fill="#AFC7E9"/>
<path d="M36.3337 43.4694C37.3495 41.6511 38.2249 39.9841 39.2025 38.3749C39.6921 37.5695 40.3665 36.8699 40.9573 36.1224C41.0478 36.184 41.1379 36.2451 41.2284 36.3066C41.0982 36.5458 40.9762 36.7887 40.8367 37.0222C39.9908 38.4383 39.1256 39.844 38.2976 41.27C37.8187 42.0951 37.2212 42.7914 36.3337 43.4694Z" fill="#AFC7E9"/>
<path d="M37.2811 24.0306C37.7111 22.6854 38.1243 21.3911 38.5528 20.051C39.2904 20.4206 39.4359 21.1199 39.2744 21.8561C39.0417 22.9207 38.497 23.7882 37.2811 24.0306Z" fill="#AFC7E9"/>
<path d="M20.5442 39.0306C22.5658 39.6041 24.3777 40.7174 26.5442 39.5196C25.6198 41.338 22.4665 41.0059 20.5442 39.0306Z" fill="#AFC7E9"/>
<path d="M53.2284 22.8061C52.597 24.079 51.9363 25.3393 51.3419 26.6284C50.7577 27.8962 51.0869 29.4351 50.0705 30.7653C50.4613 27.7326 51.1672 24.9972 53.2284 22.8061Z" fill="#AFC7E9"/>
<path d="M21.8074 41.0204C19.4972 41.0017 17.4714 38.3912 17.7233 36.2755C18.5253 38.5529 19.7506 40.1359 21.8074 41.0204Z" fill="#AFC7E9"/>
<path d="M39.0179 29.5408C38.9964 31.866 37.7331 33.2622 36.3337 34.5919C37.1832 32.9936 38.0328 31.395 39.0179 29.5408Z" fill="#AFC7E9"/>
<path d="M32.86 30.7653C32.7705 32.6955 31.4048 34.0124 29.0705 34.4388C30.8006 33.534 31.9547 32.4239 32.86 30.7653Z" fill="#AFC7E9"/>
<path d="M22.7547 56.6258C24.5542 56.528 26.3894 56.4286 28.281 56.3265C26.4212 57.2046 24.5725 56.9803 22.7547 56.6258Z" fill="#AFC7E9"/>
<path d="M28.5968 19.0301C29.7951 18.8459 30.8482 18.0776 32.2284 18.2355C31.013 18.8779 29.9775 19.7146 28.5968 19.0301Z" fill="#AFC7E9"/>
<path d="M39.8074 48.0612C40.86 46.7856 41.9126 45.5104 42.9653 44.2347C42.3427 45.8356 41.3538 47.1593 39.8074 48.0612Z" fill="#AFC7E9"/>
<path d="M54.4916 8.87756C54.6949 7.93376 55.5738 7.74602 56.2893 7.34695C56.6182 8.41191 56.1329 8.8156 54.4916 8.87756Z" fill="#AFC7E9"/>
<path d="M16.7547 29.2347C16.8837 27.7146 17.327 26.4351 18.9652 25.5612C18.4108 26.3379 17.9882 26.8551 17.6522 27.4213C17.3086 28.0005 17.0503 28.6282 16.7547 29.2347" fill="#AFC7E9"/>
<path d="M28.1232 37.0408C27.0121 38.1235 25.918 38.4626 24.3337 38.1591C25.6981 37.7561 26.7969 37.432 28.1232 37.0408Z" fill="#AFC7E9"/>
<path d="M24.1758 20.6632C23.3823 21.1442 22.5894 21.6247 21.6495 22.1938C22.2016 21.159 22.7286 20.816 24.1758 20.6632Z" fill="#AFC7E9"/>
<path d="M30.1758 55.5612C31.0182 55.2039 31.8601 54.8466 32.7021 54.4898C32.1136 55.3993 31.1421 55.4732 30.1758 55.5612Z" fill="#AFC7E9"/>
<path d="M42.6733 28.7755C42.3635 27.6298 42.3799 26.7199 43.2811 25.8673C43.0788 26.835 42.9009 27.6848 42.6733 28.7755Z" fill="#AFC7E9"/>
<path d="M51.8074 29.6087C52.1825 28.6188 52.5586 27.6253 52.9347 26.6326C53.0328 26.6615 53.1303 26.6904 53.2284 26.7193C52.835 27.7128 52.5992 28.7507 52.029 29.6935C52.0259 29.6986 51.9202 29.652 51.8074 29.6087Z" fill="#AFC7E9"/>
<path d="M15.7357 33.5204C15.5492 32.4572 15.3627 31.3936 15.1758 30.3305C15.2253 30.3227 15.2743 30.3139 15.3233 30.3061C15.5373 31.3587 15.7513 32.4117 15.9653 33.4647C15.8887 33.4831 15.8122 33.502 15.7357 33.5204" fill="#AFC7E9"/>
<path d="M24.8074 49.1323C25.426 49.086 26.0452 49.0401 26.86 48.9796C26.1309 49.609 25.4766 49.4246 24.8425 49.3759C24.8311 49.2947 24.8193 49.2131 24.8074 49.1323Z" fill="#AFC7E9"/>
<path d="M24.273 43.4694C23.5036 43.2963 22.7347 43.1237 21.9653 42.9511C21.9783 42.8686 21.9914 42.7866 22.0045 42.7041C22.7809 42.8351 23.5573 42.9657 24.3337 43.0963C24.3136 43.2208 24.2931 43.3454 24.273 43.4694Z" fill="#AFC7E9"/>
<path d="M16.9789 35.051C16.9571 34.494 16.9349 33.9375 16.9126 33.3805C17.0153 33.3761 17.1179 33.3717 17.2206 33.3674C17.276 33.9127 17.3314 34.458 17.3863 35.0033C17.2505 35.0193 17.1147 35.0349 16.9789 35.051" fill="#AFC7E9"/>
<path d="M55.439 17.7944C55.856 17.0155 56.2725 16.2371 56.6896 15.4592C56.7972 16.459 56.1911 17.1656 55.6761 17.9076C55.6717 17.9142 55.5665 17.8559 55.439 17.7944Z" fill="#AFC7E9"/>
<path d="M47.2284 33.7096C47.4555 33.0853 47.6827 32.461 47.9103 31.8367C47.9991 31.8656 48.087 31.8941 48.1758 31.923C47.9887 32.5572 47.8012 33.1923 47.6142 33.8265C47.4853 33.7877 47.3568 33.7484 47.2284 33.7096Z" fill="#AFC7E9"/>
<path d="M29.86 10.6728C29.1462 10.8398 28.4325 11.0064 27.7192 11.1735C27.6959 11.0866 27.6727 10.9992 27.6495 10.9122C28.3588 10.7442 29.0676 10.5762 29.7765 10.4082C29.8041 10.4965 29.8318 10.5844 29.86 10.6728Z" fill="#AFC7E9"/>
<path d="M34.3473 26.4796C34.62 27.525 34.2537 28.1114 33.6495 28.6224C33.8565 27.9854 34.064 27.3489 34.3473 26.4796Z" fill="#AFC7E9"/>
<path d="M34.5968 38.8776C34.5043 39.7488 34.0318 40.1554 33.1758 40.0964C33.6493 39.6903 34.1228 39.2842 34.5968 38.8776Z" fill="#AFC7E9"/>
<path d="M31.2627 37.1938C30.6374 37.6019 30.0121 38.0103 29.3863 38.4183C29.9413 37.9037 30.3126 37.0958 31.2803 37.2106C31.2855 37.2151 31.2627 37.1938 31.2627 37.1938Z" fill="#AFC7E9"/>
<path d="M54.1758 15.9386C54.4039 15.4214 54.6325 14.9046 54.861 14.3877C54.9487 14.4186 55.0359 14.4499 55.1231 14.4807C54.9123 15.011 54.7019 15.5412 54.4916 16.0714C54.3861 16.0272 54.2807 15.9829 54.1758 15.9386Z" fill="#AFC7E9"/>
<path d="M36.8073 36.1434C36.478 36.6466 36.1487 37.1498 35.8194 37.6531C35.7275 37.5935 35.6361 37.5339 35.5442 37.4744C35.9561 37.0236 36.3675 36.5732 36.7794 36.1225L36.8073 36.1434Z" fill="#AFC7E9"/>
<path d="M35.6192 19.1326C35.2257 19.0674 34.8325 19.0027 34.439 18.9379C34.4515 18.8499 34.464 18.7615 34.4765 18.6734C34.8853 18.7227 35.2937 18.7719 35.7021 18.8212C35.6743 18.9252 35.647 19.0291 35.6192 19.1326" fill="#AFC7E9"/>
<path d="M20.0194 45.7653C20.3528 46.0355 20.6856 46.3057 21.0179 46.576C20.9892 46.6119 20.9601 46.6478 20.931 46.6837C20.5915 46.4217 20.252 46.1592 19.9126 45.8977C19.9484 45.8536 19.9837 45.8089 20.0194 45.7653Z" fill="#AFC7E9"/>
<path d="M48.1758 39.2154C48.0133 39.5111 47.8509 39.8068 47.6884 40.1021C47.6404 40.0705 47.5923 40.0385 47.5442 40.0069C47.6902 39.6812 47.8362 39.3564 47.9821 39.0306C48.0467 39.0922 48.1117 39.1538 48.1758 39.2154Z" fill="#AFC7E9"/>
<path d="M30.6756 40.2551C31.0416 39.9488 31.407 39.643 31.7724 39.3368C31.8196 39.4183 31.8659 39.4994 31.9126 39.581C31.4916 39.7962 31.0705 40.0124 30.6495 40.2276L30.6756 40.2551Z" fill="#AFC7E9"/>
<path d="M42.9653 23.6068C43.0592 23.2375 43.1531 22.8688 43.2471 22.5C43.3112 22.5112 43.3748 22.5229 43.439 22.5341C43.3652 22.931 43.2915 23.3275 43.2178 23.7245C43.1334 23.6856 43.0496 23.6462 42.9653 23.6068Z" fill="#AFC7E9"/>
<path d="M36.8074 36.1004C36.981 35.8015 37.1551 35.5025 37.3286 35.2041C37.418 35.2624 37.5074 35.3213 37.5968 35.3791C37.3438 35.6274 37.0913 35.8747 36.8387 36.1224L36.8074 36.1004Z" fill="#AFC7E9"/>
<path d="M30.6215 40.2551C30.2995 40.4594 29.9779 40.6631 29.6559 40.8674C29.6186 40.7855 29.5814 40.7036 29.5442 40.6217C29.9123 40.5079 30.2803 40.3942 30.6494 40.2819C30.6505 40.2829 30.6215 40.2551 30.6215 40.2551Z" fill="#AFC7E9"/>
<path d="M25.7547 47.4999C25.9116 47.4803 26.0684 47.4608 26.2253 47.4413C26.2262 47.4553 26.2271 47.47 26.2284 47.4846C26.0777 47.5035 25.9271 47.5224 25.7769 47.5413C25.7698 47.5273 25.7618 47.5139 25.7547 47.4999Z" fill="#AFC7E9"/>
</svg>
