<svg width="429" height="106" viewBox="0 0 429 106" fill="none" xmlns="http://www.w3.org/2000/svg">
<path d="M378.596 1.9846C376.596 3.05127 372.996 4.11793 370.596 4.11793L366.463 4.3846L370.463 4.91793C375.796 5.71793 377.796 8.65126 377.796 15.5846C377.796 25.7179 384.063 33.7179 393.13 35.4513C396.33 35.9846 397.796 37.1846 398.33 39.4513C399.13 42.3846 407.93 50.3846 409.13 49.0513C410.996 47.1846 401.263 22.7846 397.796 20.6513C395.396 19.1846 396.33 17.5846 399.263 18.2513C400.996 18.7846 401.396 19.3179 400.596 19.9846C398.73 21.0513 402.33 24.5179 407.53 26.5179C412.196 28.2513 420.063 28.3846 421.13 26.7846C422.063 25.1846 415.396 20.3846 410.596 19.1846C407.13 18.3846 407.263 18.2513 413.796 15.9846C421.53 13.3179 430.863 5.45127 428.063 3.71793C425.796 2.25127 416.73 2.3846 410.863 3.9846C408.063 4.7846 403.13 7.5846 399.663 10.1179C392.73 15.4513 390.596 14.9179 390.33 7.85127C389.93 1.1846 384.996 -1.2154 378.596 1.9846ZM388.196 7.9846C388.463 10.5179 390.863 14.9179 394.196 19.1846C399.796 25.8513 404.596 35.4513 406.596 43.3179L407.53 47.3179L404.463 44.6513C402.863 43.1846 400.596 39.9846 399.53 37.5846C398.063 34.1179 396.996 33.3179 393.796 33.3179C391.13 33.3179 388.196 31.8513 384.996 28.9179C380.596 24.9179 380.063 23.7179 379.13 14.6513C378.196 6.25127 378.33 4.3846 380.063 3.05127C383.396 0.384598 387.796 2.91793 388.196 7.9846ZM425.53 5.1846C426.996 5.9846 426.463 6.91793 423.396 9.1846C416.73 13.8513 410.33 15.9846 402.996 15.9846H396.063L398.596 13.1846C404.463 6.7846 420.596 1.9846 425.53 5.1846ZM414.863 22.9179C419.53 25.3179 418.33 27.0513 412.863 25.9846C406.463 24.7846 402.863 22.9179 403.796 21.1846C404.73 19.8513 410.063 20.6513 414.863 22.9179Z" fill="black"/>
<path d="M254.596 32.118C251.93 36.118 253.796 40.518 258.33 41.0513C265.13 41.8513 268.196 35.9846 263.396 31.5846C260.063 28.518 256.996 28.7846 254.596 32.118Z" fill="black"/>
<path d="M0.463074 69.8513V103.985H18.8631C33.7964 103.985 38.0631 103.451 42.5964 101.451C49.5297 98.2513 53.9297 92.2513 54.1964 85.3179C54.4631 78.1179 50.5964 73.1846 42.3297 70.3846C38.7297 69.1846 36.8631 68.1179 38.3297 67.9846C39.6631 67.9846 42.7297 65.9846 45.2631 63.4513C49.1297 59.5846 49.7964 57.9846 49.7964 52.7846C49.7964 47.5846 48.9964 45.8513 45.2631 41.5846L40.7297 36.6513L20.5964 36.2513L0.463074 35.8513V69.8513ZM33.7964 40.9179C41.5297 47.8513 40.3297 62.5179 31.6631 66.5179C29.7964 67.3179 24.7297 67.9846 20.4631 67.9846H12.4631V52.6513V37.3179H21.1297C28.5964 37.3179 30.3297 37.7179 33.7964 40.9179ZM36.1964 72.1179C39.6631 74.2513 43.1297 81.0513 43.1297 85.5846C43.1297 90.5179 38.5964 97.5846 33.6631 100.251C30.7297 101.851 26.3297 102.651 20.8631 102.651H12.4631V85.8513V68.9179L22.8631 69.5846C28.4631 69.8513 34.4631 71.0513 36.1964 72.1179Z" fill="black"/>
<path d="M61.7964 69.9846V103.985H67.1298H72.4631V69.9846V35.9846H67.1298H61.7964V69.9846Z" fill="black"/>
<path d="M196.463 69.9846V103.985H202.463C208.196 103.985 208.463 103.851 208.463 99.9846V95.8513L213.663 100.118C227.796 111.451 243.796 102.385 247.53 80.9179C252.863 49.3179 224.73 32.7846 210.73 59.3179C208.596 63.1846 208.596 62.9179 208.463 49.5846V35.9846H202.463H196.463V69.9846ZM232.996 55.0513C235.396 58.3846 235.796 60.6513 235.796 73.0513C235.796 84.3846 235.263 88.3846 233.263 92.3846C228.73 101.451 220.73 103.185 212.196 97.1846C208.463 94.5179 208.463 94.2513 208.463 80.9179C208.463 65.5846 210.73 58.5179 217.263 53.4513C222.463 49.3179 229.263 50.1179 232.996 55.0513Z" fill="black"/>
<path d="M357.796 41.5846V47.3179H346.73C336.73 47.3179 334.996 47.7179 329.93 51.0513C315.663 60.5179 313.396 87.9846 325.93 99.5846C334.863 107.718 347.796 107.051 354.996 97.8513L357.796 94.2513V99.1846V103.985H363.796H369.796V69.9846V35.9846H363.796H357.796V41.5846ZM357.53 68.9179C357.796 85.1846 357.396 90.1179 355.796 93.3179C346.863 110.651 330.33 102.651 328.73 80.1179C327.396 60.5179 336.863 47.4513 351.796 48.3846L357.13 48.6513L357.53 68.9179Z" fill="black"/>
<path d="M159.13 46.7846C131.263 52.2513 128.596 91.1846 155.396 102.651C164.196 106.385 174.996 105.718 184.196 100.918C189.263 98.3846 190.33 97.1846 190.063 94.6513C189.53 89.7179 188.73 89.8513 183.396 95.0513C177.13 101.185 169.396 104.518 163.663 103.318C155.796 101.851 148.463 90.5179 148.463 79.5846V75.9846H169.93H191.396L190.863 68.1179C189.796 52.2513 176.596 43.4513 159.13 46.7846ZM172.73 49.4513C176.463 51.4513 180.463 60.9179 180.463 68.2513V74.6513H164.463H148.463V71.1846C148.463 59.5846 156.863 47.9846 165.263 47.9846C167.796 47.9846 171.13 48.6513 172.73 49.4513Z" fill="black"/>
<path d="M299.663 49.1846C294.596 52.2513 290.196 58.2513 286.996 66.3846L284.596 72.6513L284.463 60.2513V47.9846H278.463H272.463V75.9846V103.985H278.463H284.463V90.6513C284.463 80.5179 285.13 75.7179 287.13 70.3846C291.93 58.1179 298.596 52.5179 306.996 53.8513C311.53 54.5179 312.196 54.2513 312.863 51.7179C313.263 50.1179 313.396 48.3846 312.996 47.7179C311.796 45.7179 303.93 46.6513 299.663 49.1846Z" fill="black"/>
<path d="M80.7297 71.9846L81.1297 95.9846L85.2631 100.118C88.3297 103.185 91.1297 104.518 95.3964 104.918C104.73 105.985 111.13 101.718 116.463 91.1846L118.996 85.9846L119.13 94.9179V103.985H125.13H131.13V75.9846V47.9846H125.13H119.13V63.8512C119.13 82.5179 116.863 91.0512 110.196 97.9846C106.73 101.451 104.596 102.651 101.13 102.651C93.1297 102.651 92.4631 100.118 92.4631 72.3846V47.9846H86.3297H80.3297L80.7297 71.9846Z" fill="black"/>
<path d="M253.796 75.9846V103.985H259.796H265.796V75.9846V47.9846H259.796H253.796V75.9846Z" fill="black"/>
</svg>
